<svg width="76" height="75" viewBox="0 0 76 75" fill="none" xmlns="http://www.w3.org/2000/svg">
<path d="M75.0867 2.7012L67.0868 0.0696713C66.6788 -0.0671684 66.2348 0.00125142 65.8855 0.248616C65.5375 0.497295 65.3322 0.894657 65.3322 1.31702V11.8432V18.422H46.6658C46.3538 18.422 46.0512 18.5299 45.8112 18.7259L37.8113 25.3048C37.6713 25.4219 37.5553 25.5653 37.4727 25.7271L33.6914 33.1915L25.2729 36.7506L17.7544 34.2783C17.6184 34.2349 17.4757 34.2112 17.333 34.2112H6.66655C2.99061 34.2112 0 37.1624 0 40.79V55.2635C0 55.9911 0.59599 56.5792 1.33331 56.5792H5.33324V72.3684H0V74.9999H6.66655H13.3331H18.6663C19.4037 74.9999 19.9996 74.4118 19.9996 73.6842V67.1053H22.6663H29.3328H38.666C39.4033 67.1053 39.9993 66.5172 39.9993 65.7896V59.2108H47.9992H54.6657C55.403 59.2108 55.999 58.6226 55.999 57.895V51.3162H63.9989H70.6654H74.6653V48.6846H71.9987V38.1585C71.9987 34.5309 69.0081 31.5796 65.3322 31.5796H59.9989V26.3166H66.6655C70.3414 26.3166 73.332 23.3653 73.332 19.7378V11.8432C73.332 11.1155 72.736 10.5274 71.9987 10.5274H67.9988V7.52875L75.0867 5.19721C75.632 5.01695 75.9987 4.51565 75.9987 3.94855C75.9987 3.38146 75.632 2.88015 75.0867 2.7012ZM54.0297 21.0535L53.3324 22.7745L52.6351 21.0535H54.0297ZM18.6663 64.4738C17.929 64.4738 17.333 65.062 17.333 65.7896V72.3684H14.6664V56.5792H21.333V64.4738H18.6663ZM23.9996 64.4738V55.2635C23.9996 54.5358 23.4036 53.9477 22.6663 53.9477H13.3331C12.5958 53.9477 11.9998 54.5358 11.9998 55.2635V72.3684H7.99986V42.1058H5.33324V53.9477H2.66662V40.79C2.66662 38.6137 4.46125 36.8427 6.66655 36.8427H10.6665V46.0531H13.3331V36.8427H17.117L24.9116 39.4058C25.2209 39.5098 25.5595 39.4927 25.8582 39.3677L34.1714 35.8519L34.9807 37.0493L35.3847 37.648L26.4409 42.0597L17.521 40.8019C17.1384 40.7466 16.7504 40.8611 16.4584 41.1097C16.1677 41.3624 15.9997 41.7242 15.9997 42.1058V48.6846C15.9997 49.4122 16.5957 50.0004 17.333 50.0004H23.9996C26.2049 50.0004 27.9995 51.7714 27.9995 53.9477V64.4738H23.9996ZM38.666 56.5792C37.9287 56.5792 37.3327 57.1674 37.3327 57.895V64.4738H30.6661V53.9477C30.6661 50.3201 27.6755 47.3689 23.9996 47.3689H18.6663V43.6229L26.4769 44.7242C26.7462 44.7623 27.0182 44.7176 27.2622 44.5978L37.9287 39.3348C38.1233 39.2387 38.2767 39.0927 38.4007 38.9229C38.4113 38.9085 38.4313 38.9032 38.442 38.8887L43.6486 31.1823L46.6658 28.9481V56.5792H38.666ZM62.6656 48.6846H55.999V40.79H62.6656V48.6846ZM70.6654 19.7378C70.6654 21.914 68.8708 23.685 66.6655 23.685H58.6656C57.9283 23.685 57.3323 24.2732 57.3323 25.0008V32.8954C57.3323 33.623 57.9283 34.2112 58.6656 34.2112H65.3322C67.5375 34.2112 69.3321 35.9822 69.3321 38.1585V48.6846H65.3322V39.4742C65.3322 38.7466 64.7362 38.1585 63.9989 38.1585H54.6657C53.9284 38.1585 53.3324 38.7466 53.3324 39.4742V50.0004V56.5792H49.3325V26.3166C49.3325 25.8179 49.0471 25.3627 48.5951 25.139C48.1445 24.9179 47.6018 24.964 47.1992 25.264L41.8659 29.2113C41.7446 29.2994 41.6393 29.4086 41.5566 29.5336L37.3327 35.7862L36.2047 34.1151L39.7326 27.1508L47.1485 21.0535H49.7631L52.0937 26.8047C52.2977 27.3047 52.7871 27.6323 53.3324 27.6323C53.8777 27.6323 54.367 27.3047 54.571 26.8047L56.9017 21.0535H66.6655C67.4028 21.0535 67.9988 20.4654 67.9988 19.7378V13.1589H70.6654V19.7378ZM67.9988 4.7538V3.1433L70.4494 3.94855L67.9988 4.7538Z" fill="url(#paint0_linear)"/>
<defs>
<linearGradient id="paint0_linear" x1="7.54024e-08" y1="49" x2="76" y2="49" gradientUnits="userSpaceOnUse">
<stop stop-color="#67E485"/>
<stop offset="1" stop-color="#F79726"/>
</linearGradient>
</defs>
</svg>
