<svg width="62" height="70" viewBox="0 0 62 70" fill="none" xmlns="http://www.w3.org/2000/svg">
<path d="M58.929 56.2013H58.4526V51.0125C58.8008 51.0125 59.1511 51.0381 59.4774 50.8896C59.9677 50.6664 60.27 50.1772 60.2791 49.6431C60.286 49.2554 60.2791 48.8671 60.2791 48.4794C60.2791 47.3526 60.2924 46.2246 60.2791 45.0978C60.2732 44.5883 60.004 44.1183 59.5495 43.8769C59.2045 43.6938 58.8291 43.7189 58.4526 43.7189V29.137C58.4526 27.6833 58.2251 26.2456 57.7775 24.8635L56.0648 19.5715C55.7054 18.4634 55.5233 17.3093 55.5233 16.1413C55.5233 15.3861 54.9113 14.7741 54.1561 14.7741C53.401 14.7741 52.7889 15.3861 52.7889 16.1413C52.7889 17.5961 53.0159 19.0337 53.464 20.4143L55.1762 25.7062C55.5356 26.8155 55.7182 27.9696 55.7182 29.137V30.7055H33.8903L43.1994 19.4135C43.75 18.7779 44.1639 18.0447 44.4272 17.2596C44.6451 16.6091 44.7599 15.9234 44.7599 15.2265V4.70289C44.7599 4.70236 44.7594 4.70182 44.7594 4.70076V2.73436H52.7889V5.50665C52.7889 6.2618 53.401 6.87383 54.1561 6.87383C54.9113 6.87383 55.5233 6.2618 55.5233 5.50665V1.36718C55.5233 0.612028 54.9113 0 54.1561 0H43.3922C42.6376 0 42.025 0.612028 42.025 1.36718V4.05081L38.6071 6.81882C38.1051 7.22524 37.4728 7.44901 36.8271 7.44901H24.9273C24.2511 7.44901 23.5959 7.20655 23.0832 6.76488L19.9563 4.07538V1.36718C19.9563 0.612028 19.3442 0 18.5891 0H7.82573C7.07057 0 6.45854 0.612028 6.45854 1.36718V16.1413C6.45854 17.3093 6.27643 18.4634 5.91648 19.5726L4.2043 24.8646C3.75729 26.2478 3.53085 27.6854 3.53085 29.137V32.0599C3.53085 32.0642 3.53032 32.0684 3.53032 32.0732V37.2846C3.53032 37.2888 3.53085 37.2931 3.53085 37.2979V43.7189C3.18105 43.7189 2.83925 43.7071 2.51989 43.8769C2.07021 44.1151 1.79571 44.5819 1.78876 45.0871C1.78396 45.4513 1.78876 45.8161 1.78876 46.1803C1.78876 47.3221 1.78396 48.4634 1.78876 49.6047C1.7909 50.0266 1.95592 50.4287 2.2865 50.7006C2.65554 51.0044 3.08011 51.0125 3.53085 51.013V56.2019H3.05287C1.57621 56.2019 0.375118 57.403 0.375118 58.8796V67.3225C0.375118 68.7986 1.57621 70.0003 3.05287 70.0003H58.929C60.4062 70.0003 61.6078 68.7986 61.6078 67.3225V58.8796C61.6078 57.403 60.4062 56.2013 58.929 56.2013ZM55.7177 56.2013H32.3581V54.3727H33.932C34.6871 54.3727 35.2991 53.7602 35.2991 53.0055V52.3252H37.5133C38.2503 52.3252 38.849 51.742 38.8778 51.0125H55.7177V56.2013ZM4.89803 46.4532H4.9007H23.1013V48.2781H4.52313V46.4532H4.89803ZM6.26522 51.0125H23.104C23.1334 51.742 23.732 52.3252 24.4685 52.3252H27.7193L29.6243 53.7036V56.2013H6.26522V51.0125ZM32.5648 43.4283V43.4363V43.706H30.1135L31.4342 42.7506H32.5648V43.4283ZM27.3951 44.8035L28.0136 45.7963C28.263 46.1969 28.702 46.4409 29.1741 46.4409H33.932C34.6871 46.4409 35.2991 45.8284 35.2991 45.0738V44.8035H36.1462V49.5908H35.2991V49.3152C35.2991 48.9852 35.1822 48.6818 34.9867 48.4458C34.7363 48.1414 34.3565 47.9475 33.9314 47.9475H29.1746C28.8793 47.9475 28.5973 48.0431 28.366 48.2124C28.2272 48.3139 28.107 48.442 28.013 48.5926L27.3914 49.5908H25.8357V44.8035H27.3951ZM57.0827 46.4532H57.0854H57.5447V48.2781H38.8805V46.4532H57.0827ZM31.4337 51.6384L30.1135 50.6829H32.5648V50.958V50.966V51.6384H31.4337ZM55.7177 43.7189H38.8805V43.4363C38.8805 42.6812 38.2685 42.0692 37.5133 42.0692H35.2991V41.3834C35.2991 40.6283 34.6871 40.0162 33.932 40.0162H32.3586V38.6517H55.7177V43.7189ZM55.7177 35.9174H32.3586V33.4399H55.7177V35.9174ZM19.9568 7.68239L21.2999 8.83809C22.3088 9.70592 23.5969 10.1834 24.9273 10.1834H36.8271C38.0971 10.1834 39.3403 9.74331 40.3273 8.94383L42.025 7.56917V15.2259C42.025 15.6083 41.962 15.9837 41.8472 16.3426C41.6966 16.8131 41.4541 17.2537 41.1241 17.6324C41.1161 17.6415 41.1081 17.6516 41.1001 17.6607L30.9915 29.9231L20.8823 17.6607C20.8743 17.6505 20.8658 17.6409 20.8572 17.6313C20.7125 17.4647 20.5832 17.2868 20.4716 17.0994C20.1362 16.536 19.9568 15.8898 19.9568 15.2265V7.68239ZM6.80568 25.7057L8.51786 20.4153C8.96594 19.0343 9.19291 17.5961 9.19291 16.1413V2.73436H17.2219V15.2259C17.2219 16.3506 17.5194 17.446 18.071 18.4084C18.2751 18.763 18.5116 19.1005 18.7829 19.4135L28.0926 30.7055H6.26522V29.137C6.26522 27.9712 6.44733 26.816 6.80568 25.7057ZM6.26522 38.6517H9.78037C10.535 38.6517 11.1476 38.0392 11.1476 37.2846C11.1476 36.5294 10.535 35.9174 9.78037 35.9174H6.26522V33.4399H29.6243V35.9174H20.0631C19.3085 35.9174 18.6959 36.5294 18.6959 37.2846C18.6959 38.0392 19.3085 38.6517 20.0631 38.6517H29.6243V40.6849L27.7118 42.0692H24.4685C23.7133 42.0692 23.1013 42.6812 23.1013 43.4363V43.7189H6.26522V38.6517ZM3.10948 58.9357H4.89803H4.90605H29.6243V67.2654H3.10948V58.9357ZM58.8734 67.2654H32.3586V58.9357H57.0774H57.0854H58.8734V67.2654Z" fill="url(#paint0_linear)"/>
<defs>
<linearGradient id="paint0_linear" x1="62" y1="31.5" x2="1.99999" y2="31.5" gradientUnits="userSpaceOnUse">
<stop offset="0.0393826" stop-color="#FF4343"/>
<stop offset="1" stop-color="#E7A031"/>
</linearGradient>
</defs>
</svg>
