<svg width="77" height="76" viewBox="0 0 77 76" fill="none" xmlns="http://www.w3.org/2000/svg">
<path d="M68.9952 32.7142H74.7277C75.8474 32.7142 76.758 31.8155 76.758 30.7103V24.7699C76.758 23.6648 75.8474 22.766 74.7277 22.766H68.9952C66.9714 22.766 65.3253 24.3907 65.3253 26.3877V26.6266H62.9285V26.0635C62.9285 24.6615 62.0737 23.4531 60.8518 22.9185V22.1792C60.8518 9.94937 50.7709 0 38.3807 0C33.6346 0 29.0965 1.44379 25.2562 4.17596C24.751 4.53546 24.6365 5.23068 25.0007 5.72992C25.3649 6.22858 26.0699 6.34164 26.5751 5.98215C30.0288 3.52539 34.1111 2.22656 38.3807 2.22656C49.5273 2.22656 58.5954 11.1775 58.5954 22.1792V22.7278C57.0832 23.1029 55.9606 24.4562 55.9606 26.0635V26.6266H50.3239V22.1792C50.3239 18.9397 48.9933 16.0017 46.8432 13.869L48.0363 12.6908C48.4769 12.2565 48.4769 11.5515 48.0363 11.1166C47.5957 10.6823 46.8813 10.6823 46.4413 11.1166L45.1007 12.4398C43.4776 11.345 41.5683 10.6359 39.5087 10.4445V8.53342C39.5087 7.91821 39.0035 7.42014 38.3807 7.42014C37.758 7.42014 37.2528 7.91821 37.2528 8.53342V10.4445C35.1932 10.6359 33.2839 11.345 31.6608 12.4398L30.3202 11.1166C29.8796 10.6823 29.1658 10.6823 28.7252 11.1166C28.2846 11.5515 28.2846 12.2565 28.7252 12.6908L29.9183 13.869C27.7682 16.0017 26.437 18.9397 26.437 22.1792V26.6266H20.9484V26.0635C20.9484 24.4041 19.7523 23.0159 18.1655 22.6947V22.1792C18.1655 17.4576 19.8686 12.8764 22.9604 9.27966C23.3634 8.81058 23.3047 8.1084 22.83 7.71063C22.3547 7.31287 21.6427 7.37027 21.2397 7.83936C17.8031 11.8379 15.9103 16.9306 15.9103 22.1792V22.9869C14.7671 23.5517 13.9805 24.7183 13.9805 26.0635V26.6266H11.583V26.3877C11.583 24.3907 9.93694 22.766 7.91372 22.766H2.18066C1.06096 22.766 0.150391 23.6648 0.150391 24.7699V30.7103C0.150391 31.8155 1.06096 32.7142 2.18066 32.7142H7.91372C9.93694 32.7142 11.583 31.0895 11.583 29.0926V28.8537H13.9799V29.4167C13.9799 30.7619 14.7671 31.928 15.9097 32.4933V43.5073C14.7671 44.072 13.9799 45.2381 13.9799 46.5833V47.1469H11.583V46.908C11.583 44.9105 9.93694 43.2858 7.91372 43.2858H2.18066C1.06096 43.2858 0.150391 44.1851 0.150391 45.2897V51.2301C0.150391 52.3352 1.06096 53.234 2.18066 53.234H7.91372C9.93694 53.234 11.583 51.6093 11.583 49.6123V49.3734H13.9799V49.937C13.9799 51.2817 14.7671 52.4483 15.9097 53.0131V53.8214C15.9097 66.0506 25.99 76 38.3807 76C50.7709 76 60.8512 66.0506 60.8512 53.8208V53.0815C62.0731 52.5469 62.9285 51.3391 62.9285 49.9365V49.3734H65.3253V49.6123C65.3253 51.6093 66.9714 53.234 68.9946 53.234H74.7277C75.8474 53.234 76.758 52.3352 76.758 51.2301V45.2897C76.758 44.1845 75.8474 43.2858 74.7277 43.2858H68.9946C66.9714 43.2858 65.3253 44.9105 65.3253 46.9074V47.1463H62.9285V46.5833C62.9285 45.1812 62.0731 43.9729 60.8512 43.4383V40.4138C60.8512 39.7986 60.3466 39.3006 59.7233 39.3006C59.1006 39.3006 58.5954 39.7986 58.5954 40.4138V43.2481C57.0832 43.6232 55.9606 44.976 55.9606 46.5833V47.1469H50.3239V28.8531H55.9606V29.4167C55.9606 31.024 57.0832 32.3768 58.5954 32.7519V35.2893C58.5954 35.9039 59.1006 36.4026 59.7233 36.4026C60.3466 36.4026 60.8512 35.9039 60.8512 35.2893V32.5612C62.0731 32.0266 62.9285 30.8188 62.9285 29.4167V28.8531H65.3253V29.092C65.3253 31.0895 66.9714 32.7142 68.9952 32.7142ZM9.32716 29.092C9.32716 29.8615 8.6927 30.4877 7.91372 30.4877H2.40625V24.9926H7.91372C8.69328 24.9926 9.32716 25.6182 9.32716 26.3877V26.6266H7.29688C6.67417 26.6266 6.16895 27.1252 6.16895 27.7398C6.16895 28.3545 6.67417 28.8531 7.29688 28.8531H9.32716V29.092ZM9.32716 49.6123C9.32716 50.3818 8.6927 51.0074 7.91372 51.0074H2.40625V45.5123H7.91372C8.69328 45.5123 9.32716 46.138 9.32716 46.9074V47.1463H7.29688C6.67417 47.1463 6.16895 47.645 6.16895 48.2596C6.16895 48.8748 6.67417 49.3729 7.29688 49.3729H9.32716V49.6123ZM67.5812 46.9074C67.5812 46.138 68.2157 45.5123 68.9952 45.5123H74.5021V51.0074H68.9952C68.2157 51.0074 67.5812 50.3812 67.5812 49.6123V49.3734H69.6115C70.2348 49.3734 70.7394 48.8748 70.7394 48.2602C70.7394 47.645 70.2348 47.1469 69.6115 47.1469H67.5812V46.9074ZM42.5412 28.8531H48.0686V30.6373H28.6929V28.8531H34.3672C34.9899 28.8531 35.4951 28.355 35.4951 27.7398C35.4951 27.1252 34.9899 26.6266 34.3672 26.6266H28.6929V24.8424H48.0686V26.6266H42.5412C41.9184 26.6266 41.4132 27.1252 41.4132 27.7398C41.4132 28.355 41.9184 28.8531 42.5412 28.8531ZM38.3807 63.3828C33.0389 63.3828 28.6929 59.0932 28.6929 53.8208V53.3842H48.0686V53.8208C48.0686 59.0932 43.7225 63.3828 38.3807 63.3828ZM42.5412 49.3734H48.0686V51.1576H28.6929V49.3734H34.3672C34.9899 49.3734 35.4951 48.8748 35.4951 48.2602C35.4951 47.645 34.9899 47.1469 34.3672 47.1469H28.6929V45.3627H48.0686V47.1469H42.5412C41.9184 47.1469 41.4132 47.645 41.4132 48.2602C41.4132 48.8748 41.9184 49.3734 42.5412 49.3734ZM38.3807 12.6172C43.7225 12.6172 48.068 16.9068 48.068 22.1792V22.6158H28.6929V22.1792C28.6929 16.9068 33.0389 12.6172 38.3807 12.6172ZM26.437 28.8531V34.844C26.437 35.4592 26.9422 35.9572 27.565 35.9572C28.1877 35.9572 28.6929 35.4592 28.6929 34.844V32.8638H48.0686V43.1362H28.6929V39.9685C28.6929 39.3539 28.1877 38.8553 27.565 38.8553C26.9422 38.8553 26.437 39.3539 26.437 39.9685V47.1469H20.9484V46.5833C20.9484 44.9244 19.7517 43.5357 18.1655 43.2144V32.7856C19.7517 32.4643 20.9484 31.0762 20.9484 29.4167V28.8537H26.437V28.8531ZM17.4641 51.1489C16.7868 51.1489 16.2357 50.605 16.2357 49.9365V46.5833C16.2357 45.9147 16.7868 45.3708 17.4641 45.3708C18.1415 45.3708 18.6925 45.9147 18.6925 46.5833V49.9365C18.6925 50.605 18.1415 51.1489 17.4641 51.1489ZM18.6925 26.0635V29.4167C18.6925 30.0853 18.1415 30.6292 17.4641 30.6292C16.7868 30.6292 16.2357 30.0853 16.2357 29.4167V26.0635C16.2357 25.395 16.7868 24.8511 17.4641 24.8511C18.1415 24.8511 18.6925 25.395 18.6925 26.0635ZM58.2164 46.5833C58.2164 45.9147 58.7675 45.3708 59.4442 45.3708C60.1216 45.3708 60.6726 45.9147 60.6726 46.5833V49.9365C60.6726 50.605 60.1216 51.1489 59.4442 51.1489C58.7675 51.1489 58.2164 50.605 58.2164 49.9365V46.5833ZM55.9606 49.3734V49.9365C55.9606 51.5438 57.0832 52.8971 58.5954 53.2717V53.8208C58.5959 64.8225 49.5273 73.7734 38.3807 73.7734C27.2342 73.7734 18.1655 64.8225 18.1655 53.8208V53.3053C19.7517 52.9841 20.9484 51.5959 20.9484 49.9365V49.3734H26.437V53.8208C26.437 57.0603 27.7682 59.9983 29.9183 62.131L28.7252 63.3092C28.2846 63.7435 28.2846 64.4485 28.7252 64.8834C28.9449 65.1003 29.2339 65.2093 29.5224 65.2093C29.8108 65.2093 30.0999 65.1009 30.3202 64.8834L31.6602 63.5602C33.2833 64.655 35.1926 65.3641 37.2522 65.5555V67.4666C37.2522 68.0818 37.7574 68.5799 38.3802 68.5799C39.0035 68.5799 39.5081 68.0818 39.5081 67.4666V65.5555C41.5683 65.3641 43.4776 64.655 45.1007 63.5602L46.4407 64.8834C46.661 65.1003 46.9501 65.2093 47.2385 65.2093C47.527 65.2093 47.816 65.1009 48.0357 64.8834C48.4763 64.4485 48.4763 63.7435 48.0357 63.3092L46.8426 62.131C48.9927 59.9983 50.3239 57.0603 50.3239 53.8208V49.3734H55.9606ZM58.2164 29.4167V26.0635C58.2164 25.395 58.7675 24.8511 59.4442 24.8511C60.1216 24.8511 60.6726 25.395 60.6726 26.0635V29.4167C60.6726 30.0853 60.1216 30.6292 59.4442 30.6292C58.7675 30.6292 58.2164 30.0853 58.2164 29.4167ZM67.5812 26.3877C67.5812 25.6182 68.2157 24.9926 68.9952 24.9926H74.5021V30.4877H68.9952C68.2157 30.4877 67.5812 29.8615 67.5812 29.0926V28.8537H69.6115C70.2348 28.8537 70.7394 28.355 70.7394 27.7404C70.7394 27.1252 70.2348 26.6271 69.6115 26.6271H67.5812V26.3877Z" fill="url(#paint0_linear)"/>
<defs>
<linearGradient id="paint0_linear" x1="-3.5" y1="38" x2="84" y2="38" gradientUnits="userSpaceOnUse">
<stop stop-color="#1DD6F0"/>
<stop offset="1" stop-color="#74E771"/>
</linearGradient>
</defs>
</svg>
