<svg width="79" height="45" viewBox="0 0 79 45" fill="none" xmlns="http://www.w3.org/2000/svg">
<g clip-path="url(#clip0)">
<path d="M17.94 8C19.873 8 21.44 6.433 21.44 4.5C21.44 2.567 19.873 1 17.94 1C16.007 1 14.44 2.567 14.44 4.5C14.44 6.433 16.007 8 17.94 8Z" stroke="#22CCFF" stroke-width="2"/>
<path d="M11.42 19.18L11.83 14.65C11.9082 13.3239 12.51 12.0832 13.503 11.2009C14.4961 10.3185 15.7989 9.86674 17.125 9.94498C18.4511 10.0232 19.6918 10.625 20.5741 11.618C21.4565 12.611 21.9082 13.9139 21.83 15.24L26.7 16.57C27.0108 16.661 27.2773 16.8631 27.4488 17.1379C27.6203 17.4126 27.6847 17.7408 27.63 18.06C27.6219 18.2523 27.5725 18.4407 27.4851 18.6122C27.3976 18.7837 27.2743 18.9344 27.1234 19.054C26.9725 19.1735 26.7977 19.2592 26.6107 19.3051C26.4237 19.351 26.2291 19.3561 26.04 19.32C25.41 19.27 19.2 18.52 19.2 18.52L16.26 15.99" stroke="#22CCFF" stroke-width="2" stroke-linecap="round" stroke-linejoin="round"/>
<path d="M53.55 40.18C50.607 39.662 47.6346 39.3281 44.65 39.18C42.22 39.3 37.56 41.18 35.13 41.18C32.7 41.18 27.99 39.3 25.55 39.18C22.5324 39.3293 19.5268 39.6632 16.55 40.18" stroke="#22CCFF" stroke-width="2" stroke-miterlimit="10"/>
<path d="M12.11 40.18H11.25C8.53397 40.1721 5.93143 39.0896 4.0109 37.1691C2.09036 35.2486 1.00791 32.646 1 29.93V29.93C1 24.29 5.79 18.27 11.25 19.68C11.75 19.81 14.04 20.58 14.55 20.68C28.49 23.43 51.37 23.88 64.86 20.68C65.34 20.57 67.26 19.8 67.72 19.68C73.72 17.68 77.97 24.29 77.97 29.93C77.97 35.57 73.33 40.68 67.72 40.18C66.31 40.05 63.56 39.18 62.14 39.18C60.6404 39.4021 59.1596 39.7364 57.71 40.18" stroke="#22CCFF" stroke-width="2" stroke-miterlimit="10"/>
<path d="M1.04999 27.8C1.04999 27.8 27.82 39.26 77.64 27.8" stroke="#22CCFF" stroke-width="2" stroke-miterlimit="10"/>
<path d="M20.12 11.18H26.55C26.7405 11.1802 26.9287 11.222 27.1015 11.3024C27.2742 11.3828 27.4273 11.4999 27.5501 11.6456C27.6729 11.7912 27.7625 11.9619 27.8126 12.1458C27.8626 12.3296 27.872 12.5222 27.84 12.71C27.76 14.26 26.63 14.18 26.63 14.18L21.8 14.59" stroke="#22CCFF" stroke-width="2" stroke-linecap="round" stroke-linejoin="round"/>
<path d="M24.59 19.55L15.9 36.69" stroke="#22CCFF" stroke-width="2" stroke-linecap="round" stroke-linejoin="round"/>
<path d="M27.42 13.85L26.1 16.04" stroke="#22CCFF" stroke-width="2" stroke-linecap="round" stroke-linejoin="round"/>
<path d="M16.7426 39.3962C17.2347 38.4258 16.8469 37.2402 15.8766 36.7482C14.9062 36.2561 13.7207 36.6438 13.2286 37.6142L11.5054 41.0122C11.0133 41.9826 11.401 43.1681 12.3714 43.6602C13.3418 44.1523 14.5273 43.7646 15.0194 42.7942L16.7426 39.3962Z" stroke="#22CCFF" stroke-width="2" stroke-linecap="round" stroke-linejoin="round"/>
<path d="M59.07 8C61.003 8 62.57 6.433 62.57 4.5C62.57 2.567 61.003 1 59.07 1C57.137 1 55.57 2.567 55.57 4.5C55.57 6.433 57.137 8 59.07 8Z" stroke="#22CCFF" stroke-width="2"/>
<path d="M52.55 22.18L52.96 14.65C53.0382 13.3239 53.64 12.0832 54.633 11.2009C55.6261 10.3185 56.9289 9.86674 58.255 9.94498C59.5811 10.0232 60.8218 10.625 61.7041 11.618C62.5865 12.611 63.0382 13.9139 62.96 15.24L67.82 16.57C68.1315 16.6609 68.3989 16.8626 68.5721 17.137C68.7452 17.4115 68.812 17.7397 68.76 18.06C68.7503 18.2517 68.6998 18.4392 68.6119 18.6099C68.524 18.7806 68.4007 18.9306 68.2502 19.0499C68.0997 19.1691 67.9255 19.2549 67.7392 19.3015C67.553 19.3481 67.3589 19.3544 67.17 19.32C66.54 19.27 60.32 18.52 60.32 18.52L57.39 15.99" stroke="#22CCFF" stroke-width="2" stroke-linecap="round" stroke-linejoin="round"/>
<path d="M61.24 11.18H67.68C67.8705 11.1802 68.0587 11.222 68.2315 11.3024C68.4042 11.3828 68.5573 11.4999 68.6801 11.6456C68.8029 11.7912 68.8925 11.9619 68.9426 12.1458C68.9926 12.3296 69.002 12.5222 68.97 12.71C68.89 14.26 67.76 14.18 67.76 14.18L62.93 14.59" stroke="#22CCFF" stroke-width="2" stroke-linecap="round" stroke-linejoin="round"/>
<path d="M65.72 19.55L57.03 36.69" stroke="#22CCFF" stroke-width="2" stroke-linecap="round" stroke-linejoin="round"/>
<path d="M68.55 13.85L67.23 16.04" stroke="#22CCFF" stroke-width="2" stroke-linecap="round" stroke-linejoin="round"/>
<path d="M57.8755 39.3884C58.3676 38.418 57.9799 37.2325 57.0095 36.7404C56.0391 36.2483 54.8536 36.6361 54.3615 37.6064L52.6383 41.0045C52.1462 41.9748 52.534 43.1604 53.5043 43.6525C54.4747 44.1445 55.6602 43.7568 56.1523 42.7864L57.8755 39.3884Z" stroke="#22CCFF" stroke-width="2" stroke-linecap="round" stroke-linejoin="round"/>
<path d="M39.6 8C41.533 8 43.1 6.433 43.1 4.5C43.1 2.567 41.533 1 39.6 1C37.667 1 36.1 2.567 36.1 4.5C36.1 6.433 37.667 8 39.6 8Z" stroke="#22CCFF" stroke-width="2"/>
<path d="M33.08 22.18L33.49 14.65C33.5465 13.7487 33.846 12.8796 34.3567 12.1348C34.8674 11.3901 35.5703 10.7976 36.3907 10.4202C37.2111 10.0428 38.1184 9.89466 39.0162 9.99146C39.9141 10.0883 40.7689 10.4264 41.49 10.97" stroke="#22CCFF" stroke-width="2" stroke-linecap="round" stroke-linejoin="round"/>
<path d="M41.77 11.18H48.21C48.4057 11.1724 48.6006 11.2089 48.7804 11.2866C48.9602 11.3643 49.1202 11.4814 49.2488 11.6291C49.3774 11.7769 49.4712 11.9516 49.5233 12.1403C49.5754 12.3291 49.5846 12.5272 49.55 12.72C49.42 14.26 48.29 14.18 48.29 14.18L43.46 14.59L42.93 22.95" stroke="#22CCFF" stroke-width="2" stroke-linecap="round" stroke-linejoin="round"/>
<path d="M48.52 14.13L44.66 22.7" stroke="#22CCFF" stroke-width="2" stroke-linecap="round" stroke-linejoin="round"/>
<path d="M43.46 14.55L47.1 15.97C47.4095 16.0608 47.6755 16.2609 47.8484 16.5332C48.0213 16.8054 48.0894 17.1313 48.04 17.45C48.0319 17.6436 47.9822 17.8333 47.8943 18.006C47.8064 18.1787 47.6823 18.3305 47.5305 18.4509C47.3787 18.5714 47.2027 18.6578 47.0146 18.7043C46.8264 18.7507 46.6304 18.756 46.44 18.72C45.82 18.67 43.44 18.38 43.44 18.38" stroke="#22CCFF" stroke-width="2" stroke-linecap="round" stroke-linejoin="round"/>
</g>
<defs>
<clipPath id="clip0">
<rect width="78.97" height="44.87" fill="white"/>
</clipPath>
</defs>
</svg>
