<svg width="28" height="28" viewBox="0 0 28 28" fill="none" xmlns="http://www.w3.org/2000/svg">
<g clip-path="url(#clip0)">
<path d="M22.9224 15.5304C22.6237 15.1915 22.5893 14.6944 22.8386 14.3176L26.9569 8.09123C27.3966 7.42644 26.9199 6.53955 26.1228 6.53955H20.0834C19.708 6.53955 19.3801 6.79358 19.2862 7.15713C18.8772 8.74264 18.1094 10.8915 16.7753 12.1249C16.6104 12.2772 16.4543 12.3996 16.3105 12.4977V7.53955C16.3105 6.98727 15.8628 6.53955 15.3105 6.53955H9.69759C9.24302 6.53955 8.87451 6.90806 8.87451 7.36264V7.83837C8.87451 8.03021 9.03002 8.18572 9.22186 8.18572C9.41369 8.18572 9.56921 8.34124 9.56921 8.53307V11.9166C8.73565 11.1835 7.68826 9.78447 7.41397 7.27334C7.36839 6.8558 7.01574 6.53955 6.59571 6.53955H1.05089C0.516463 6.53955 0.123778 7.04096 0.251861 7.55981C1.15741 11.229 2.51583 14.2349 4.28975 16.4939C5.73789 18.3383 7.46268 19.6925 9.41604 20.5186C11.1605 21.2564 12.7667 21.4374 13.9224 21.4374C14.9854 21.4374 15.6671 21.2842 15.7243 21.2709C16.0927 21.1851 16.3551 20.8593 16.3605 20.4811L16.3838 18.8634L18.8938 21.047C19.0758 21.2053 19.3089 21.2925 19.5501 21.2925H25.786C26.6468 21.2925 27.1054 20.2772 26.5363 19.6314L22.9224 15.5304ZM16.4137 16.7077C15.7715 16.1492 14.7696 16.597 14.7575 17.4479L14.7246 19.7534C13.8053 19.8352 11.9842 19.8384 9.97445 18.967C8.29602 18.2392 6.80515 17.0474 5.54328 15.4245C4.09813 13.566 2.94841 11.1344 2.11913 8.18572H5.88038C6.69449 12.9072 9.96996 14.1289 10.1159 14.1808C10.6518 14.372 11.2154 13.9747 11.2154 13.4057V8.18572H14.6645V13.7139C14.6645 14.1854 15.0598 14.5605 15.5305 14.5359C15.6359 14.5303 16.5923 14.454 17.7217 13.4861C19.0049 12.3862 20.0091 10.605 20.7111 8.18572H24.9207L20.7703 14.4603C20.5211 14.8371 20.5554 15.3342 20.8541 15.6731L24.3553 19.6461H20.1657C19.9245 19.6461 19.6914 19.5589 19.5094 19.4006L16.4137 16.7077Z" fill="white"/>
</g>
<defs>
<clipPath id="clip0">
<rect width="28" height="28" fill="white" transform="matrix(1 0 0 -1 0 28)"/>
</clipPath>
</defs>
</svg>
