<svg width="23" height="26" viewBox="0 0 23 26" fill="none" xmlns="http://www.w3.org/2000/svg">
<path d="M22.7301 8.52338C22.4863 6.356 20.9172 4.62289 18.9142 4.30893C13.9859 3.53645 8.99769 3.53569 4.08769 4.30666C2.08393 4.62137 0.514127 6.35429 0.270391 8.52111C-0.092844 11.7484 -0.0900364 15.0259 0.278463 18.2621C0.524656 20.424 2.09411 22.1531 4.09524 22.4669C8.99628 23.2358 13.9793 23.2363 18.9059 22.4648C20.9062 22.1516 22.4751 20.4227 22.7215 18.2604C23.0898 15.025 23.0928 11.749 22.7301 8.52338ZM20.9379 18.0237C20.7904 19.3201 19.8488 20.3567 18.6482 20.5447C13.8964 21.2887 9.087 21.2895 4.35354 20.5469C3.15188 20.3584 2.20958 19.3216 2.062 18.0254C1.71122 14.9452 1.70859 11.8263 2.0541 8.7551C2.20045 7.45551 3.14293 6.41568 4.34617 6.22678C9.08069 5.48329 13.895 5.48272 18.6561 6.22905C19.8582 6.41758 20.8 7.45722 20.9462 8.75719C21.2914 11.8266 21.2885 14.9444 20.9379 18.0237ZM16.1094 12.5184L9.04156 8.70262C8.44529 8.38071 7.74128 8.84927 7.74128 9.57041V17.202C7.74128 17.9248 8.44669 18.3909 9.04156 18.0698L16.1094 14.254C16.7702 13.8972 16.7709 12.8758 16.1094 12.5184ZM9.53815 15.6324V11.1402L13.6987 13.3862L9.53815 15.6324Z" fill="white"/>
</svg>
