<svg width="33" height="45" viewBox="0 0 33 45" fill="none" xmlns="http://www.w3.org/2000/svg">
<path d="M16.5 0.00012207C7.77885 0.00012207 0.708412 7.07057 0.708412 15.7916C0.708412 16.4593 0.761971 17.1099 0.843607 17.755C2.19296 30.0902 15.4746 44.3071 15.4746 44.3071C15.7112 44.5719 15.9394 44.7353 16.1591 44.8535L16.1704 44.8592L16.6127 45L17.0549 44.8592L17.0663 44.8535C17.286 44.7352 17.5142 44.5634 17.7508 44.3071C17.7508 44.3071 30.8408 30.0648 32.1592 17.7269C32.238 17.0903 32.2916 16.4452 32.2916 15.7888C32.2887 7.07057 25.2211 0.00012207 16.5 0.00012207ZM16.5 25.9494C10.9 25.9494 6.3423 21.3917 6.3423 15.7917C6.3423 10.1917 10.9 5.63402 16.5 5.63402C22.1 5.63402 26.6549 10.1917 26.6549 15.7917C26.6549 21.3917 22.1 25.9494 16.5 25.9494Z" fill="url(#paint0_linear)"/>
<defs>
<linearGradient id="paint0_linear" x1="-1" y1="17.5" x2="35" y2="17.5" gradientUnits="userSpaceOnUse">
<stop stop-color="#ED4343"/>
<stop offset="1" stop-color="#F45933"/>
</linearGradient>
</defs>
</svg>
