<svg width="83" height="53" viewBox="0 0 83 53" fill="none" xmlns="http://www.w3.org/2000/svg">
<g clip-path="url(#clip0)">
<path d="M21.4201 10.0048C23.3442 10.1898 25.0539 8.77988 25.2389 6.85575C25.4238 4.93163 24.014 3.22188 22.0898 3.03692C20.1657 2.85196 18.456 4.26184 18.271 6.18597C18.086 8.1101 19.4959 9.81985 21.4201 10.0048Z" stroke="#EE4542" stroke-width="2"/>
<path d="M13.8602 20.5097L14.7018 16.0397C14.9065 14.7272 15.6243 13.5498 16.6972 12.7665C17.7701 11.9832 19.1102 11.6582 20.4227 11.8629C21.7352 12.0677 22.9126 12.7855 23.6959 13.8583C24.4792 14.9312 24.8042 16.2713 24.5994 17.5838L29.3198 19.3737C29.6205 19.494 29.8665 19.7207 30.0109 20.0106C30.1553 20.3005 30.1881 20.6333 30.103 20.9458C30.0766 21.1365 30.0093 21.3193 29.9059 21.4817C29.8025 21.644 29.6653 21.7822 29.5037 21.8868C29.342 21.9914 29.1598 22.0599 28.9693 22.0877C28.7788 22.1155 28.5845 22.1019 28.3997 22.0479C27.7774 21.9379 21.6677 20.5971 21.6677 20.5971L18.9832 17.7974" stroke="#EE4542" stroke-width="2" stroke-linecap="round" stroke-linejoin="round"/>
<path d="M53.7875 45.4445C50.9076 44.6473 47.9808 44.0304 45.024 43.5975C42.5937 43.4844 37.7752 44.9099 35.3564 44.6774C32.9375 44.4449 28.429 42.1228 26.0117 41.7699C22.9936 41.6298 19.9699 41.6746 16.9573 41.9042" stroke="#EE4542" stroke-width="2" stroke-miterlimit="10"/>
<path d="M12.5377 41.4793L11.6816 41.397C8.9788 41.1293 6.49178 39.8028 4.76382 37.7073C3.03586 35.6118 2.2074 32.9176 2.4594 30.2133V30.2133C2.99906 24.5992 8.3431 19.0651 13.6431 20.9911C14.1284 21.1683 16.3342 22.1539 16.8323 22.3023C30.4452 26.3735 53.1772 29.0106 66.9115 27.1161C67.3998 27.0525 69.3847 26.4698 69.854 26.3944C76.0179 24.9776 79.6159 31.964 79.0762 37.5781C78.5366 43.1922 73.4289 47.8348 67.8925 46.8003C66.5014 46.536 63.8473 45.4068 62.4338 45.271C60.9198 45.3485 59.4138 45.5396 57.9284 45.8425" stroke="#EE4542" stroke-width="2" stroke-miterlimit="10"/>
<path d="M2.71298 28.0979C2.71298 28.0979 28.2636 42.0667 78.9516 35.4263" stroke="#EE4542" stroke-width="2" stroke-miterlimit="10"/>
<path d="M23.2858 13.3788L29.6863 13.9941C29.8759 14.0125 30.0592 14.0721 30.2235 14.1686C30.3877 14.2652 30.5289 14.3964 30.6373 14.5532C30.7456 14.7099 30.8184 14.8884 30.8506 15.0762C30.8829 15.264 30.8738 15.4566 30.824 15.6405C30.596 17.1757 29.4788 16.988 29.4788 16.988L24.6318 16.9339" stroke="#EE4542" stroke-width="2" stroke-linecap="round" stroke-linejoin="round"/>
<path d="M26.9344 22.1381L16.6442 38.368" stroke="#EE4542" stroke-width="2" stroke-linecap="round" stroke-linejoin="round"/>
<path d="M30.2968 16.7351L28.7733 18.7887" stroke="#EE4542" stroke-width="2" stroke-linecap="round" stroke-linejoin="round"/>
<path d="M17.224 41.1423C17.8067 40.2235 17.5342 39.0063 16.6154 38.4236C15.6965 37.841 14.4793 38.1135 13.8967 39.0323L11.8563 42.2499C11.2736 43.1687 11.5461 44.3859 12.4649 44.9686C13.3837 45.5513 14.601 45.2787 15.1836 44.3599L17.224 41.1423Z" stroke="#EE4542" stroke-width="2" stroke-linecap="round" stroke-linejoin="round"/>
<path d="M62.3613 13.9403C64.2855 14.1252 65.9952 12.7154 66.1802 10.7912C66.3651 8.86711 64.9552 7.15736 63.0311 6.97241C61.107 6.78745 59.3972 8.19733 59.2123 10.1215C59.0273 12.0456 60.4372 13.7553 62.3613 13.9403Z" stroke="#EE4542" stroke-width="2"/>
<path d="M54.5144 27.4314L55.6431 19.9751C55.8478 18.6626 56.5656 17.4852 57.6385 16.7019C58.7114 15.9186 60.0515 15.5936 61.364 15.7984C62.6765 16.0031 63.8539 16.7209 64.6372 17.7938C65.4205 18.8667 65.7455 20.2068 65.5407 21.5193L70.2512 23.3082C70.5525 23.4285 70.7995 23.6549 70.9455 23.9446C71.0916 24.2343 71.1267 24.5675 71.0443 24.8813C71.0163 25.0713 70.9481 25.253 70.8442 25.4146C70.7404 25.5761 70.6033 25.7135 70.4421 25.8178C70.2809 25.9222 70.0993 25.9909 69.9094 26.0194C69.7196 26.048 69.5258 26.0357 69.341 25.9834C68.7187 25.8733 62.599 24.5316 62.599 24.5316L59.9245 21.7329" stroke="#EE4542" stroke-width="2" stroke-linecap="round" stroke-linejoin="round"/>
<path d="M64.2171 17.3133L70.6276 17.9295C70.8172 17.948 71.0005 18.0075 71.1648 18.1041C71.329 18.2007 71.4702 18.3319 71.5785 18.4887C71.6869 18.6454 71.7597 18.8239 71.7919 19.0117C71.8242 19.1995 71.8151 19.392 71.7652 19.5759C71.5373 21.1112 70.4201 20.9234 70.4201 20.9234L65.5731 20.8694" stroke="#EE4542" stroke-width="2" stroke-linecap="round" stroke-linejoin="round"/>
<path d="M67.8757 26.0736L57.5855 42.3035" stroke="#EE4542" stroke-width="2" stroke-linecap="round" stroke-linejoin="round"/>
<path d="M71.2381 20.6705L69.7146 22.7242" stroke="#EE4542" stroke-width="2" stroke-linecap="round" stroke-linejoin="round"/>
<path d="M58.1689 45.0703C58.7516 44.1515 58.4791 42.9343 57.5603 42.3516C56.6414 41.769 55.4242 42.0415 54.8416 42.9603L52.8011 46.1779C52.2185 47.0967 52.491 48.3139 53.4098 48.8966C54.3286 49.4793 55.5458 49.2068 56.1285 48.2879L58.1689 45.0703Z" stroke="#EE4542" stroke-width="2" stroke-linecap="round" stroke-linejoin="round"/>
<path d="M42.9807 12.0773C44.9048 12.2623 46.6145 10.8524 46.7995 8.92826C46.9844 7.00414 45.5746 5.29439 43.6504 5.10943C41.7263 4.92447 40.0166 6.33435 39.8316 8.25848C39.6467 10.1826 41.0565 11.8924 42.9807 12.0773Z" stroke="#EE4542" stroke-width="2"/>
<path d="M35.1338 25.5684L36.2624 18.1122C36.4048 17.2205 36.7861 16.3839 37.3657 15.6915C37.9454 14.999 38.7017 14.4765 39.5545 14.1793C40.4072 13.8822 41.3245 13.8215 42.209 14.0038C43.0934 14.1861 43.912 14.6045 44.5778 15.2145" stroke="#EE4542" stroke-width="2" stroke-linecap="round" stroke-linejoin="round"/>
<path d="M44.8364 15.4504L51.2469 16.0666C51.4424 16.0778 51.6329 16.1327 51.8044 16.2273C51.976 16.3218 52.1241 16.4536 52.2379 16.613C52.3518 16.7724 52.4284 16.9553 52.4622 17.1482C52.4961 17.3411 52.4862 17.5391 52.4334 17.7277C52.1566 19.2482 51.0395 19.0605 51.0395 19.0605L46.1924 19.0064L44.8649 27.2774" stroke="#EE4542" stroke-width="2" stroke-linecap="round" stroke-linejoin="round"/>
<path d="M51.2732 19.0327L46.6109 27.194" stroke="#EE4542" stroke-width="2" stroke-linecap="round" stroke-linejoin="round"/>
<path d="M46.1962 18.9666L49.6836 20.7284C49.983 20.8483 50.2286 21.073 50.3747 21.3606C50.5208 21.6481 50.5574 21.979 50.4777 22.2915C50.4511 22.4835 50.3835 22.6675 50.2795 22.831C50.1754 22.9945 50.0374 23.1337 49.8748 23.2391C49.7121 23.3446 49.5287 23.4137 49.337 23.4419C49.1452 23.4701 48.9496 23.4567 48.7635 23.4026C48.1512 23.2935 45.8098 22.7771 45.8098 22.7771" stroke="#EE4542" stroke-width="2" stroke-linecap="round" stroke-linejoin="round"/>
</g>
<defs>
<clipPath id="clip0">
<rect width="78.97" height="44.87" fill="white" transform="translate(4.32782 0.324951) rotate(5.49068)"/>
</clipPath>
</defs>
</svg>
