<svg width="128" height="128" viewBox="0 0 128 128" fill="none" xmlns="http://www.w3.org/2000/svg">
<g opacity="0.5" clip-path="url(#clip0)">
<path d="M125.83 35.2325C122.258 35.2325 120.583 33.697 118.463 31.753C116.101 29.5873 113.424 27.1326 108.164 27.1326C102.903 27.1326 100.226 29.5873 97.864 31.753C95.7442 33.697 94.0698 35.2325 90.4973 35.2325C86.9248 35.2325 85.2503 33.697 83.1306 31.753C80.7686 29.5873 78.0919 27.1326 72.8312 27.1326C67.5705 27.1326 64.8937 29.5873 62.5317 31.7533C60.4123 33.6973 58.7378 35.2325 55.1656 35.2325C51.5936 35.2325 49.9193 33.697 47.7996 31.7533C45.4379 29.5875 42.7612 27.1326 37.5007 27.1326C32.2402 27.1326 29.5635 29.5873 27.2015 31.753C25.082 33.697 23.4076 35.2325 19.8353 35.2325C16.2631 35.2325 14.5886 33.697 12.4689 31.753C10.1069 29.5875 7.43019 27.1326 2.16973 27.1326C0.971236 27.1326 0.000244141 28.1041 0.000244141 29.3021C0.000244141 30.5 0.971236 31.4715 2.16973 31.4715C5.74195 31.4715 7.41644 33.007 9.53592 34.9508C11.8977 37.1165 14.5746 39.5715 19.8353 39.5715C25.0958 39.5715 27.7725 37.1167 30.1345 34.9513C32.254 33.0073 33.9285 31.4718 37.5007 31.4718C41.0727 31.4718 42.7469 33.0073 44.8666 34.951C47.2284 37.1167 49.9051 39.5717 55.1656 39.5717C60.426 39.5717 63.1027 37.1172 65.4647 34.9515C67.5845 33.0075 69.2589 31.472 72.8312 31.472C76.4034 31.472 78.0779 33.0075 80.1976 34.9513C82.5596 37.117 85.2366 39.572 90.497 39.572C95.7575 39.572 98.4345 37.1175 100.796 34.9518C102.917 33.0078 104.591 31.4723 108.164 31.4723C111.736 31.4723 113.411 33.0078 115.531 34.9518C117.893 37.1175 120.57 39.572 125.83 39.572C127.029 39.572 128 38.6005 128 37.4025C128 36.204 127.029 35.2325 125.83 35.2325Z" fill="white"/>
<path d="M125.83 55.6644C122.257 55.6644 120.583 54.1289 118.463 52.1849C116.101 50.0192 113.424 47.5645 108.163 47.5645C102.902 47.5645 100.225 50.0192 97.8635 52.1849C95.7437 54.1289 94.0693 55.6644 90.4968 55.6644C86.9243 55.6644 85.2498 54.1289 83.1298 52.1849C80.7681 50.0192 78.0916 47.5645 72.8307 47.5645C67.5697 47.5645 64.8932 50.0192 62.5313 52.1852C60.4118 54.1292 58.7373 55.6644 55.1651 55.6644C51.5931 55.6644 49.9191 54.1289 47.7991 52.1852C47.5284 51.9369 47.2579 51.6887 46.9834 51.4439C46.0889 50.6464 44.7174 50.7257 43.9201 51.6197C43.1229 52.5142 43.2019 53.8857 44.0961 54.6829C44.3554 54.9139 44.6109 55.1484 44.8664 55.3826C47.2281 57.5481 49.9049 60.0029 55.1651 60.0029C60.4255 60.0029 63.1023 57.5484 65.4642 55.3826C67.584 53.4387 69.2585 51.9032 72.8307 51.9032C76.4029 51.9032 78.0774 53.4387 80.1971 55.3824C82.5591 57.5481 85.2361 60.0031 90.4965 60.0031C95.757 60.0031 98.434 57.5486 100.796 55.3829C102.916 53.4389 104.59 51.9034 108.163 51.9034C111.736 51.9034 113.41 53.4389 115.53 55.3829C117.892 57.5486 120.569 60.0031 125.83 60.0031C127.028 60.0031 127.999 59.0316 127.999 57.8336C127.999 56.6356 127.028 55.6644 125.83 55.6644Z" fill="white"/>
<path d="M40.5937 47.89C39.6277 47.6742 38.5869 47.5645 37.5007 47.5645C32.2402 47.5645 29.5635 50.0192 27.2015 52.1847C25.082 54.1286 23.4076 55.6641 19.8353 55.6641C16.2631 55.6641 14.5886 54.1286 12.4689 52.1847C10.1072 50.0189 7.43019 47.5645 2.16973 47.5645C0.971236 47.5645 0.000244141 48.5359 0.000244141 49.7339C0.000244141 50.9319 0.971236 51.9039 2.16973 51.9039C5.74195 51.9039 7.41644 53.4394 9.53592 55.3831C11.8977 57.5489 14.5746 60.0038 19.8353 60.0038C25.0958 60.0038 27.7725 57.5491 30.1345 55.3834C32.254 53.4394 33.9285 51.9039 37.5007 51.9039C38.2802 51.9039 38.9824 51.9762 39.6474 52.1247C40.8159 52.3857 41.9767 51.6499 42.2379 50.4804C42.4992 49.3109 41.7629 48.1512 40.5937 47.89Z" fill="white"/>
<path d="M125.83 96.5279C122.257 96.5279 120.583 94.9924 118.463 93.0484C116.101 90.8827 113.424 88.4282 108.163 88.4282C102.902 88.4282 100.226 90.883 97.8635 93.0484C95.7438 94.9924 94.0693 96.5279 90.4968 96.5279C86.9244 96.5279 85.2499 94.9924 83.1299 93.0484C80.7682 90.8827 78.0917 88.4282 72.8307 88.4282C67.5698 88.4282 64.8933 90.883 62.5313 93.0489C60.4118 94.9929 58.7373 96.5282 55.1651 96.5282C51.5931 96.5282 49.9189 94.9927 47.7992 93.0489C45.4374 90.8832 42.7607 88.4282 37.5002 88.4282C32.2398 88.4282 29.5631 90.883 27.2011 93.0484C25.0816 94.9924 23.4071 96.5279 19.8349 96.5279C18.6364 96.5279 17.6654 97.4994 17.6654 98.6974C17.6654 99.8956 18.6364 100.867 19.8349 100.867C25.0953 100.867 27.7721 98.4121 30.1341 96.2467C32.2535 94.3027 33.928 92.7672 37.5002 92.7672C41.0722 92.7672 42.7465 94.3027 44.8662 96.2464C47.2279 98.4122 49.9047 100.867 55.1651 100.867C60.4256 100.867 63.1023 98.4126 65.4643 96.2469C67.584 94.3029 69.2585 92.7674 72.8307 92.7674C76.403 92.7674 78.0774 94.3029 80.1972 96.2469C82.5592 98.4124 85.2361 100.867 90.4966 100.867C95.7571 100.867 98.434 98.4126 100.796 96.2469C102.916 94.3029 104.59 92.7674 108.163 92.7674C111.736 92.7674 113.41 94.3029 115.53 96.2469C117.892 98.4126 120.569 100.867 125.83 100.867C127.028 100.867 127.999 99.8956 127.999 98.6976C127.999 97.4994 127.028 96.5279 125.83 96.5279Z" fill="white"/>
<path d="M14.7569 94.9784C13.9664 94.4217 13.2391 93.7547 12.4689 93.0487C10.1072 90.883 7.43019 88.428 2.16973 88.428C0.971236 88.428 0.000244141 89.3995 0.000244141 90.5975C0.000244141 91.7955 0.971236 92.7669 2.16973 92.7669C5.74195 92.7669 7.41644 94.3024 9.53617 96.2464C10.3737 97.0142 11.2392 97.8079 12.2581 98.5256C12.6379 98.7931 13.0736 98.9216 13.5056 98.9216C14.1874 98.9216 14.8591 98.6011 15.2816 98.0012C15.9714 97.0217 15.7364 95.6684 14.7569 94.9784Z" fill="white"/>
<path d="M125.83 76.0963C122.257 76.0963 120.583 74.5608 118.463 72.6168C116.101 70.4511 113.424 67.9966 108.163 67.9966C102.903 67.9966 100.226 70.4511 97.8638 72.6165C96.9805 73.4263 96.921 74.7985 97.731 75.682C98.5405 76.5653 99.9128 76.6245 100.797 75.8148C102.916 73.871 104.591 72.3355 108.163 72.3355C111.736 72.3355 113.41 73.871 115.53 75.815C117.892 77.9807 120.569 80.4352 125.83 80.4352C127.028 80.4352 127.999 79.4637 127.999 78.2657C127.999 77.0675 127.028 76.0963 125.83 76.0963Z" fill="white"/>
<path d="M95.5312 77.3785C95.2335 76.218 94.0525 75.5188 92.89 75.8165C92.1565 76.0048 91.3735 76.0965 90.4968 76.0965C86.9243 76.0965 85.2498 74.561 83.1299 72.617C80.7681 70.4513 78.0914 67.9966 72.8307 67.9966C67.57 67.9966 64.8932 70.4513 62.5313 72.6173C60.4118 74.5613 58.7373 76.0965 55.1651 76.0965C51.5931 76.0965 49.9189 74.561 47.7991 72.617C45.4374 70.4516 42.7607 67.9966 37.5002 67.9966C32.2398 67.9966 29.563 70.4513 27.201 72.617C25.0816 74.561 23.4071 76.0965 19.8348 76.0965C16.2626 76.0965 14.5881 74.561 12.4684 72.617C10.1067 70.4513 7.4297 67.9966 2.16924 67.9966C0.970748 67.9966 -0.000244141 68.9681 -0.000244141 70.1661C-0.000244141 71.364 0.971248 72.3353 2.16974 72.3353C5.74196 72.3353 7.41645 73.8708 9.53593 75.8145C11.8977 77.9803 14.5746 80.4352 19.8354 80.4352C25.0958 80.4352 27.7725 77.9805 30.1345 75.8148C32.254 73.8708 33.9285 72.3353 37.5007 72.3353C41.0727 72.3353 42.7469 73.8708 44.8667 75.8148C47.2284 77.9802 49.9051 80.435 55.1656 80.435C60.426 80.435 63.1028 77.9805 65.4647 75.8148C67.5845 73.8708 69.259 72.3353 72.8312 72.3353C76.4034 72.3353 78.0779 73.8708 80.1976 75.8148C82.5596 77.9802 85.2366 80.435 90.497 80.435C91.7253 80.435 92.8938 80.295 93.9695 80.019C95.13 79.7215 95.829 78.5387 95.5312 77.3785Z" fill="white"/>
</g>
<defs>
<clipPath id="clip0">
<rect width="128" height="128" fill="white"/>
</clipPath>
</defs>
</svg>
