<svg width="76" height="75" viewBox="0 0 76 75" fill="none" xmlns="http://www.w3.org/2000/svg">
<path d="M51.9991 17.1063C56.411 17.1063 59.9989 13.5656 59.9989 9.21174C59.9989 4.85787 56.411 1.31714 51.9991 1.31714C47.5872 1.31714 43.9992 4.85787 43.9992 9.21174C43.9992 13.5656 47.5872 17.1063 51.9991 17.1063ZM51.9991 3.94867C54.9404 3.94867 57.3323 6.30916 57.3323 9.21174C57.3323 12.1143 54.9404 14.4748 51.9991 14.4748C51.8431 14.4748 51.6978 14.4419 51.5458 14.4301C52.6337 13.4656 53.3324 12.0814 53.3324 10.5275H50.6658C50.6658 11.8249 49.7071 12.8998 48.4525 13.1143C47.3645 12.1498 46.6659 10.7657 46.6659 9.21174C46.6659 6.30916 49.0578 3.94867 51.9991 3.94867Z" fill="url(#paint0_linear)"/>
<path d="M10.6665 32.8955C15.0784 32.8955 18.6663 29.3548 18.6663 25.0009C18.6663 20.647 15.0784 17.1063 10.6665 17.1063C6.25456 17.1063 2.66663 20.647 2.66663 25.0009C2.66663 29.3548 6.25456 32.8955 10.6665 32.8955ZM10.6665 19.7379C13.6078 19.7379 15.9997 22.0983 15.9997 25.0009C15.9997 26.5548 15.3011 27.939 14.2131 28.9035C12.9584 28.689 11.9998 27.614 11.9998 26.3167H9.33318C9.33318 27.8706 10.0318 29.2548 11.1198 30.2192C10.9678 30.2311 10.8225 30.264 10.6665 30.264C7.7252 30.264 5.33325 27.9035 5.33325 25.0009C5.33325 22.0983 7.7252 19.7379 10.6665 19.7379Z" fill="url(#paint1_linear)"/>
<path d="M75.0867 2.7012L67.0868 0.0696713C66.6788 -0.0671684 66.2348 0.00125142 65.8855 0.248616C65.5375 0.497295 65.3322 0.894657 65.3322 1.31702V11.8432V18.422H46.6658C46.3538 18.422 46.0512 18.5299 45.8112 18.7259L37.8113 25.3048C37.6713 25.4219 37.5553 25.5653 37.4727 25.7271L33.6914 33.1915L25.2729 36.7506L17.7544 34.2783C17.6184 34.2349 17.4757 34.2112 17.333 34.2112H6.66655C2.99061 34.2112 0 37.1624 0 40.79V55.2635C0 55.9911 0.59599 56.5792 1.33331 56.5792H5.33324V72.3684H0V74.9999H6.66655H13.3331H18.6663C19.4037 74.9999 19.9996 74.4118 19.9996 73.6842V67.1053H22.6663H29.3328H38.666C39.4033 67.1053 39.9993 66.5172 39.9993 65.7896V59.2108H47.9992H54.6657C55.403 59.2108 55.999 58.6226 55.999 57.895V51.3162H63.9989H70.6654H74.6653V48.6846H71.9987V38.1585C71.9987 34.5309 69.0081 31.5796 65.3322 31.5796H59.9989V26.3166H66.6655C70.3414 26.3166 73.332 23.3653 73.332 19.7378V11.8432C73.332 11.1155 72.736 10.5274 71.9987 10.5274H67.9988V7.52875L75.0867 5.19721C75.632 5.01695 75.9987 4.51565 75.9987 3.94855C75.9987 3.38146 75.632 2.88015 75.0867 2.7012ZM54.0297 21.0535L53.3324 22.7745L52.6351 21.0535H54.0297ZM18.6663 64.4738C17.929 64.4738 17.333 65.062 17.333 65.7896V72.3684H14.6664V56.5792H21.333V64.4738H18.6663ZM23.9996 64.4738V55.2635C23.9996 54.5358 23.4036 53.9477 22.6663 53.9477H13.3331C12.5958 53.9477 11.9998 54.5358 11.9998 55.2635V72.3684H7.99986V42.1058H5.33324V53.9477H2.66662V40.79C2.66662 38.6137 4.46125 36.8427 6.66655 36.8427H10.6665V46.0531H13.3331V36.8427H17.117L24.9116 39.4058C25.2209 39.5098 25.5595 39.4927 25.8582 39.3677L34.1714 35.8519L34.9807 37.0493L35.3847 37.648L26.4409 42.0597L17.521 40.8019C17.1384 40.7466 16.7504 40.8611 16.4584 41.1097C16.1677 41.3624 15.9997 41.7242 15.9997 42.1058V48.6846C15.9997 49.4122 16.5957 50.0004 17.333 50.0004H23.9996C26.2049 50.0004 27.9995 51.7714 27.9995 53.9477V64.4738H23.9996ZM38.666 56.5792C37.9287 56.5792 37.3327 57.1674 37.3327 57.895V64.4738H30.6661V53.9477C30.6661 50.3201 27.6755 47.3689 23.9996 47.3689H18.6663V43.6229L26.4769 44.7242C26.7462 44.7623 27.0182 44.7176 27.2622 44.5978L37.9287 39.3348C38.1233 39.2387 38.2767 39.0927 38.4007 38.9229C38.4113 38.9085 38.4313 38.9032 38.442 38.8887L43.6486 31.1823L46.6658 28.9481V56.5792H38.666ZM62.6656 48.6846H55.999V40.79H62.6656V48.6846ZM70.6654 19.7378C70.6654 21.914 68.8708 23.685 66.6655 23.685H58.6656C57.9283 23.685 57.3323 24.2732 57.3323 25.0008V32.8954C57.3323 33.623 57.9283 34.2112 58.6656 34.2112H65.3322C67.5375 34.2112 69.3321 35.9822 69.3321 38.1585V48.6846H65.3322V39.4742C65.3322 38.7466 64.7362 38.1585 63.9989 38.1585H54.6657C53.9284 38.1585 53.3324 38.7466 53.3324 39.4742V50.0004V56.5792H49.3325V26.3166C49.3325 25.8179 49.0471 25.3627 48.5951 25.139C48.1445 24.9179 47.6018 24.964 47.1992 25.264L41.8659 29.2113C41.7446 29.2994 41.6393 29.4086 41.5566 29.5336L37.3327 35.7862L36.2047 34.1151L39.7326 27.1508L47.1485 21.0535H49.7631L52.0937 26.8047C52.2977 27.3047 52.7871 27.6323 53.3324 27.6323C53.8777 27.6323 54.367 27.3047 54.571 26.8047L56.9017 21.0535H66.6655C67.4028 21.0535 67.9988 20.4654 67.9988 19.7378V13.1589H70.6654V19.7378ZM67.9988 4.7538V3.1433L70.4494 3.94855L67.9988 4.7538Z" fill="url(#paint2_linear)"/>
<path d="M34.6661 6.5802H31.9995V9.21173H34.6661V6.5802Z" fill="#94E083"/>
<path d="M29.3328 6.5802H26.6662V9.21173H29.3328V6.5802Z" fill="#94E083"/>
<path d="M23.9996 6.5802H21.3329V9.21173H23.9996V6.5802Z" fill="#94E083"/>
<defs>
<linearGradient id="paint0_linear" x1="61.5" y1="8.00006" x2="44" y2="8.00006" gradientUnits="userSpaceOnUse">
<stop stop-color="#EE9C2C"/>
<stop offset="1" stop-color="#BBDD81"/>
</linearGradient>
<linearGradient id="paint1_linear" x1="3.00001" y1="25" x2="19" y2="25" gradientUnits="userSpaceOnUse">
<stop stop-color="#69E485"/>
<stop offset="1" stop-color="#8FE183"/>
</linearGradient>
<linearGradient id="paint2_linear" x1="7.54024e-08" y1="49" x2="76" y2="49" gradientUnits="userSpaceOnUse">
<stop stop-color="#67E485"/>
<stop offset="1" stop-color="#F79726"/>
</linearGradient>
</defs>
</svg>
