<svg width="70" height="70" viewBox="0 0 70 70" fill="none" xmlns="http://www.w3.org/2000/svg">
<g clip-path="url(#clip0)">
<path d="M62.929 56.2013H62.4526V51.0125C62.8008 51.0125 63.1511 51.0381 63.4774 50.8896C63.9677 50.6664 64.27 50.1772 64.2791 49.6431C64.286 49.2554 64.2791 48.8671 64.2791 48.4794C64.2791 47.3526 64.2924 46.2246 64.2791 45.0978C64.2732 44.5883 64.004 44.1183 63.5495 43.8769C63.2045 43.6938 62.8291 43.7189 62.4526 43.7189V29.137C62.4526 27.6833 62.2251 26.2456 61.7775 24.8635L60.0648 19.5715C59.7054 18.4634 59.5233 17.3093 59.5233 16.1413C59.5233 15.3861 58.9113 14.7741 58.1561 14.7741C57.401 14.7741 56.7889 15.3861 56.7889 16.1413C56.7889 17.5961 57.0159 19.0337 57.464 20.4143L59.1762 25.7062C59.5356 26.8155 59.7182 27.9696 59.7182 29.137V30.7055H37.8903L47.1994 19.4135C47.75 18.7779 48.1639 18.0447 48.4272 17.2596C48.6451 16.6091 48.7599 15.9234 48.7599 15.2265V4.70289C48.7599 4.70236 48.7594 4.70182 48.7594 4.70076V2.73436H56.7889V5.50665C56.7889 6.2618 57.401 6.87383 58.1561 6.87383C58.9113 6.87383 59.5233 6.2618 59.5233 5.50665V1.36718C59.5233 0.612028 58.9113 0 58.1561 0H47.3922C46.6376 0 46.025 0.612028 46.025 1.36718V4.05081L42.6071 6.81882C42.1051 7.22524 41.4728 7.44901 40.8271 7.44901H28.9273C28.2511 7.44901 27.5959 7.20655 27.0832 6.76488L23.9563 4.07538V1.36718C23.9563 0.612028 23.3442 0 22.5891 0H11.8257C11.0706 0 10.4585 0.612028 10.4585 1.36718V16.1413C10.4585 17.3093 10.2764 18.4634 9.91648 19.5726L8.2043 24.8646C7.75729 26.2478 7.53085 27.6854 7.53085 29.137V32.0599C7.53085 32.0642 7.53032 32.0684 7.53032 32.0732V37.2846C7.53032 37.2888 7.53085 37.2931 7.53085 37.2979V43.7189C7.18105 43.7189 6.83925 43.7071 6.51989 43.8769C6.07021 44.1151 5.79571 44.5819 5.78876 45.0871C5.78396 45.4513 5.78876 45.8161 5.78876 46.1803C5.78876 47.3221 5.78396 48.4634 5.78876 49.6047C5.7909 50.0266 5.95592 50.4287 6.2865 50.7006C6.65554 51.0044 7.08011 51.0125 7.53085 51.013V56.2019H7.05287C5.57621 56.2019 4.37512 57.403 4.37512 58.8796V67.3225C4.37512 68.7986 5.57621 70.0003 7.05287 70.0003H62.929C64.4062 70.0003 65.6078 68.7986 65.6078 67.3225V58.8796C65.6078 57.403 64.4062 56.2013 62.929 56.2013ZM59.7177 56.2013H36.3581V54.3727H37.932C38.6871 54.3727 39.2991 53.7602 39.2991 53.0055V52.3252H41.5133C42.2503 52.3252 42.849 51.742 42.8778 51.0125H59.7177V56.2013ZM8.89803 46.4532H8.9007H27.1013V48.2781H8.52313V46.4532H8.89803ZM10.2652 51.0125H27.104C27.1334 51.742 27.732 52.3252 28.4685 52.3252H31.7193L33.6243 53.7036V56.2013H10.2652V51.0125ZM36.5648 43.4283V43.4363V43.706H34.1135L35.4342 42.7506H36.5648V43.4283ZM31.3951 44.8035L32.0136 45.7963C32.263 46.1969 32.702 46.4409 33.1741 46.4409H37.932C38.6871 46.4409 39.2991 45.8284 39.2991 45.0738V44.8035H40.1462V49.5908H39.2991V49.3152C39.2991 48.9852 39.1822 48.6818 38.9867 48.4458C38.7363 48.1414 38.3565 47.9475 37.9314 47.9475H33.1746C32.8793 47.9475 32.5973 48.0431 32.366 48.2124C32.2272 48.3139 32.107 48.442 32.013 48.5926L31.3914 49.5908H29.8357V44.8035H31.3951ZM61.0827 46.4532H61.0854H61.5447V48.2781H42.8805V46.4532H61.0827ZM35.4337 51.6384L34.1135 50.6829H36.5648V50.958V50.966V51.6384H35.4337ZM59.7177 43.7189H42.8805V43.4363C42.8805 42.6812 42.2685 42.0692 41.5133 42.0692H39.2991V41.3834C39.2991 40.6283 38.6871 40.0162 37.932 40.0162H36.3586V38.6517H59.7177V43.7189ZM59.7177 35.9174H36.3586V33.4399H59.7177V35.9174ZM23.9568 7.68239L25.2999 8.83809C26.3088 9.70592 27.5969 10.1834 28.9273 10.1834H40.8271C42.0971 10.1834 43.3403 9.74331 44.3273 8.94383L46.025 7.56917V15.2259C46.025 15.6083 45.962 15.9837 45.8472 16.3426C45.6966 16.8131 45.4541 17.2537 45.1241 17.6324C45.1161 17.6415 45.1081 17.6516 45.1001 17.6607L34.9915 29.9231L24.8823 17.6607C24.8743 17.6505 24.8658 17.6409 24.8572 17.6313C24.7125 17.4647 24.5832 17.2868 24.4716 17.0994C24.1362 16.536 23.9568 15.8898 23.9568 15.2265V7.68239ZM10.8057 25.7057L12.5179 20.4153C12.9659 19.0343 13.1929 17.5961 13.1929 16.1413V2.73436H21.2219V15.2259C21.2219 16.3506 21.5194 17.446 22.071 18.4084C22.2751 18.763 22.5116 19.1005 22.7829 19.4135L32.0926 30.7055H10.2652V29.137C10.2652 27.9712 10.4473 26.816 10.8057 25.7057ZM10.2652 38.6517H13.7804C14.535 38.6517 15.1476 38.0392 15.1476 37.2846C15.1476 36.5294 14.535 35.9174 13.7804 35.9174H10.2652V33.4399H33.6243V35.9174H24.0631C23.3085 35.9174 22.6959 36.5294 22.6959 37.2846C22.6959 38.0392 23.3085 38.6517 24.0631 38.6517H33.6243V40.6849L31.7118 42.0692H28.4685C27.7133 42.0692 27.1013 42.6812 27.1013 43.4363V43.7189H10.2652V38.6517ZM7.10948 58.9357H8.89803H8.90605H33.6243V67.2654H7.10948V58.9357ZM62.8734 67.2654H36.3586V58.9357H61.0774H61.0854H62.8734V67.2654Z" fill="url(#paint0_linear)"/>
<path d="M20.204 36.7606C19.9797 36.2223 19.4259 35.8805 18.8438 35.9211C18.2771 35.9606 17.7837 36.3644 17.6277 36.9091C17.4707 37.457 17.6806 38.0648 18.1463 38.3954C18.6072 38.7228 19.2293 38.7324 19.7009 38.4205C20.2398 38.0643 20.4475 37.355 20.204 36.7606Z" fill="#EDBB72"/>
<path d="M59.2931 10.0995C59.1404 9.87623 58.9294 9.70053 58.6795 9.59585C58.5962 9.56167 58.5097 9.53604 58.4237 9.51841C58.2474 9.48263 58.0653 9.48263 57.8891 9.51841C56.931 9.71281 56.4786 10.8568 57.0447 11.6546C57.5975 12.4333 58.8167 12.3943 59.3172 11.5804C59.5965 11.1254 59.5842 10.5449 59.2931 10.0995Z" fill="#FD5249"/>
</g>
<defs>
<linearGradient id="paint0_linear" x1="66" y1="31.5" x2="5.99999" y2="31.5" gradientUnits="userSpaceOnUse">
<stop offset="0.0393826" stop-color="#FF4343"/>
<stop offset="1" stop-color="#E7A031"/>
</linearGradient>
<clipPath id="clip0">
<rect width="70" height="70" fill="white"/>
</clipPath>
</defs>
</svg>
