<svg width="71" height="71" viewBox="0 0 71 71" fill="none" xmlns="http://www.w3.org/2000/svg">
<g clip-path="url(#clip0)">
<path d="M37.9289 70.9609H42.6593C43.258 70.9609 43.7623 70.5144 43.8339 69.9204L47.2213 41.9699C47.3396 40.9895 47.4164 40.009 47.4579 39.0286H52.121C52.7465 39.0296 53.2651 38.5434 53.3037 37.9189L54.4864 18.9964C54.4926 18.8938 54.486 18.7913 54.465 18.6911L52.0561 6.65497C51.2742 2.79004 47.8811 0.00811058 43.9379 0H40.2939C40.0381 0 39.7891 0.0830142 39.5844 0.236638C37.1975 2.01095 33.9294 2.01095 31.5421 0.236638C31.3374 0.0830142 31.0884 0 30.8326 0H27.1886C23.2454 0.00811058 19.8523 2.79004 19.0709 6.65497L16.6639 18.6863C16.6434 18.787 16.6362 18.8891 16.6429 18.9916L17.8256 37.9146C17.8619 38.5396 18.3795 39.0281 19.006 39.0286H23.6667C23.7106 40.009 23.785 40.9895 23.9033 41.9699L27.2931 69.9204C27.3646 70.5144 27.8689 70.9614 28.4672 70.9609H33.1981C33.8512 70.9609 34.3808 70.4313 34.3808 69.7782V34.2977H36.7462V69.7782C36.7462 70.4313 37.2758 70.9609 37.9289 70.9609ZM43.4579 20.2392C43.0176 19.3571 42.9637 18.3313 43.3086 17.4077L45.1302 12.5518L46.2074 19.0212V27.5493C45.5419 25.0254 44.6206 22.576 43.4579 20.2392ZM43.279 54.8399C42.9455 55.2598 41.7108 56.4873 39.1111 55.8604V51.8395C41.0968 51.0218 42.8248 49.684 44.113 47.966L43.279 54.8399ZM41.6116 68.5955H39.1111V58.2755C39.5544 58.3533 40.0028 58.3929 40.4527 58.3938C41.2929 58.3967 42.1264 58.2359 42.9055 57.921L41.6116 68.5955ZM43.9379 2.36543C46.7537 2.37306 49.1754 4.36015 49.7332 7.11966L52.11 19.0031L51.0103 36.6632H48.5729V18.9229C48.5733 18.8576 48.5676 18.7927 48.5562 18.7288L47.3734 11.633C47.3577 11.5342 47.3291 11.4378 47.2885 11.3467L43.2967 2.36543H43.9379ZM40.6727 2.36543L43.7475 9.48986L41.0901 16.5761C40.5148 18.1167 40.6049 19.8261 41.3387 21.2974C41.7962 22.213 42.2008 23.1471 42.5768 24.0913L35.5635 27.0975L28.5464 24.0913C28.9228 23.1452 29.3269 22.213 29.7849 21.2974C30.5182 19.8261 30.6084 18.1167 30.033 16.5761L27.3756 9.48986L30.4295 2.36543H30.4543C33.5411 4.45128 37.5859 4.45128 40.6727 2.36543ZM32.0153 55.8757C29.1542 56.5346 27.9696 54.9296 27.8355 54.724L27.0164 47.9646C28.3036 49.6821 30.0306 51.0203 32.0153 51.8381V55.8757ZM25.9978 12.5518L27.8193 17.4082C28.1633 18.3318 28.1089 19.3571 27.669 20.2392C26.5064 22.576 25.5851 25.0259 24.9195 27.5497V19.0212L25.9978 12.5518ZM22.5541 18.9229V36.6632H20.1166L19.0131 19.0031L21.39 7.11966C21.9482 4.35872 24.3718 2.37115 27.1886 2.36543H27.8298L23.8384 11.3467C23.7974 11.4378 23.7688 11.5342 23.753 11.633L22.5703 18.7292C22.5589 18.7932 22.5536 18.8581 22.5541 18.9229ZM29.5154 68.5955L28.2143 57.8981C29.0154 58.2311 29.8751 58.4 30.7425 58.3938C31.169 58.3919 31.5945 58.3556 32.0153 58.285V68.5955H29.5154ZM33.1981 31.9323C32.5449 31.9323 32.0153 32.4619 32.0153 33.115V49.3176C30.1432 48.3114 27.8012 45.3816 26.4257 43.1168L26.253 41.6903C25.6233 36.5186 26.1294 31.2715 27.7363 26.3155L35.0974 29.471C35.3946 29.5989 35.7314 29.5989 36.0291 29.471L43.3902 26.3155C44.997 31.272 45.5032 36.5186 44.8735 41.6903L44.7008 43.1192C43.3277 45.3792 40.9856 48.309 39.1111 49.3176V33.115C39.1111 32.4619 38.5816 31.9323 37.9284 31.9323H33.1981Z" fill="url(#paint0_linear)"/>
<path d="M36.7462 8.27893H41.4765V10.6439H36.7462V8.27893Z" fill="url(#paint1_linear)"/>
</g>
<defs>
<linearGradient id="paint0_linear" x1="71.5" y1="35" x2="-13" y2="35" gradientUnits="userSpaceOnUse">
<stop stop-color="#16EBEB"/>
<stop offset="1" stop-color="#3592FF"/>
</linearGradient>
<linearGradient id="paint1_linear" x1="54" y1="10.4999" x2="35" y2="10.4999" gradientUnits="userSpaceOnUse">
<stop offset="0.386162" stop-color="#1ED5F0"/>
<stop offset="1" stop-color="#28B7F7"/>
</linearGradient>
<clipPath id="clip0">
<rect width="71" height="71" fill="white"/>
</clipPath>
</defs>
</svg>
