<svg width="45" height="45" viewBox="0 0 45 45" fill="none" xmlns="http://www.w3.org/2000/svg">
<path d="M22.5 9.15527e-05C13.7788 9.15527e-05 6.7084 7.07054 6.7084 15.7916C6.7084 16.4592 6.76196 17.1099 6.8436 17.7549C8.19295 30.0902 21.4746 44.3071 21.4746 44.3071C21.7112 44.5719 21.9394 44.7353 22.1591 44.8535L22.1704 44.8591L22.6127 45L23.0549 44.8591L23.0662 44.8535C23.2859 44.7352 23.5142 44.5634 23.7507 44.3071C23.7507 44.3071 36.8408 30.0648 38.1591 17.7268C38.238 17.0903 38.2916 16.4451 38.2916 15.7888C38.2887 7.07054 31.2211 9.15527e-05 22.5 9.15527e-05ZM22.5 25.9494C16.9 25.9494 12.3423 21.3917 12.3423 15.7917C12.3423 10.1917 16.9 5.63399 22.5 5.63399C28.1 5.63399 32.6549 10.1917 32.6549 15.7917C32.6549 21.3917 28.1 25.9494 22.5 25.9494Z" fill="url(#paint0_linear)"/>
<defs>
<linearGradient id="paint0_linear" x1="4.99999" y1="17.5" x2="41" y2="17.5" gradientUnits="userSpaceOnUse">
<stop stop-color="#ED4343"/>
<stop offset="1" stop-color="#F45933"/>
</linearGradient>
</defs>
</svg>
