<svg width="313" height="122" viewBox="0 0 313 122" fill="none" xmlns="http://www.w3.org/2000/svg">
<g clip-path="url(#clip0)">
<path opacity="0.2" d="M49.5876 20.8116C49.5876 20.8116 48.8682 18.0818 52.9637 17.8368C57.0593 17.5918 53.7527 13.9521 53.2654 12.004C52.7781 10.0558 52.1052 3.20801 53.6947 2.54306C55.2841 1.87812 55.9223 2.54306 55.9223 2.54306C57.8473 1.01153 60.1998 0.122462 62.6515 -6.33183e-05C66.631 -0.11672 70.9701 6.00778 73.8706 5.94945C76.7711 5.89112 76.8291 3.09135 80.8318 4.30458C84.8346 5.51782 83.6744 8.16593 86.4472 8.16593C89.2201 8.16593 91.5173 9.33251 91.6566 12.9839C91.7958 16.6352 90.8096 20.7416 87.4914 21.4182C84.1732 22.0948 81.0987 26.6328 82.1197 27.601C83.1407 28.5693 85.7395 28.8726 85.3799 31.7307C85.0202 34.5888 81.0407 34.0638 82.4213 36.7003C83.802 39.3367 87.6075 43.4897 90.2643 41.2499C92.9212 39.0101 94.5455 35.907 97.504 36.2803C100.463 36.6536 103.235 39.1851 103.781 43.5597C104.326 47.9343 102.992 48.7043 108.247 55.7504C113.503 62.7965 119.339 69.026 119.281 73.9489C119.223 78.8718 114.513 79.0351 113.48 80.3767C112.447 81.7182 112.32 83.4681 114.64 85.5329C116.961 87.5978 115.244 90.4442 116.961 93.6989C118.678 96.9537 120.093 99.0885 116.114 101.34C112.134 103.591 110.684 107.103 107.911 104.186C107.547 105.396 106.849 106.476 105.898 107.302C104.947 108.129 103.782 108.666 102.539 108.853C98.0145 109.763 93.2576 107.464 93.2576 107.464C90.9243 108.561 88.3283 108.966 85.7743 108.631C85.7743 108.631 84.7533 119.492 75.1585 118.699C74.7988 118.885 71.7823 122.758 67.5591 121.848C63.336 120.938 62.6747 118.092 62.6747 118.092C62.6747 118.092 57.7206 114.452 56.8736 112.574C56.0267 110.696 55.7946 108.631 53.6251 106.741C51.4555 104.851 51.1422 105.645 52.5925 102.495C54.0427 99.3451 54.1588 98.0619 53.7527 98.1202C53.3466 98.1786 50.9798 97.3386 49.9588 99.2868C48.9378 101.235 47.1743 104.198 43.1948 104.14C39.2153 104.081 38.4264 103.591 35.1778 104.14C31.9292 104.688 21.1161 106.473 20.6985 102.507C20.2808 98.5402 20.0255 95.0405 18.4593 93.6406C16.893 92.2407 16.2433 92.1591 16.4753 89.231C16.7074 86.3029 10.5003 82.6165 7.54174 81.1583C4.58322 79.7001 3.07496 80.19 1.86834 76.492C0.661731 72.794 -0.301239 67.5094 2.11199 65.9929C4.52521 64.4763 2.90093 62.7848 7.06606 62.1782C11.2312 61.5716 9.38647 55.4354 6.33513 55.5054C3.28379 55.5754 3.92191 53.6155 2.59927 53.3122C1.27664 53.0089 -0.47527 54.2922 0.128037 50.9791C0.43006 49.1062 1.23954 47.3532 2.46757 45.9127C3.69561 44.4721 5.29471 43.3996 7.08926 42.8131C11.4284 41.2382 15.6516 39.5934 17.6471 37.7735C19.6427 35.9537 19.8747 35.347 21.8703 36.327C23.8658 37.3069 24.9448 33.1656 29.284 33.1072C33.6231 33.0489 34.8994 30.6808 35.0154 28.7442C35.1314 26.8077 33.8552 18.2451 39.1225 18.1285C42.769 18.2066 46.3491 19.1245 49.5876 20.8116Z" fill="white"/>
<path d="M87.2706 51.2009L94.0346 39.3835C94.1274 39.2669 94.2899 39.0685 94.5219 38.8119C94.6547 38.6706 94.8177 38.5614 94.9986 38.4927C95.1795 38.424 95.3735 38.3975 95.5661 38.4153H97.9909C98.1172 38.4133 98.2425 38.4383 98.3585 38.4885C98.4745 38.5388 98.5785 38.6132 98.6638 38.7069C98.7576 38.7922 98.832 38.8967 98.8821 39.0135C98.9321 39.1302 98.9566 39.2564 98.9539 39.3835V62.5166C98.948 62.7716 98.8446 63.0144 98.6653 63.1947C98.486 63.375 98.2444 63.479 97.9909 63.4849H95.1368C95.0105 63.4869 94.8852 63.4619 94.7692 63.4116C94.6532 63.3614 94.5492 63.2869 94.4639 63.1932C94.3729 63.1057 94.3004 63.0008 94.2506 62.8845C94.2007 62.7683 94.1747 62.6432 94.1738 62.5166V48.5178L89.533 56.5671C89.3984 56.7902 89.2301 56.9909 89.0341 57.1621C88.8125 57.3648 88.5215 57.4735 88.222 57.4654H86.3657C86.0662 57.4735 85.7751 57.3648 85.5535 57.1621C85.3576 56.9909 85.1893 56.7902 85.0546 56.5671L80.4138 48.5178V62.5166C80.413 62.6432 80.3869 62.7683 80.3371 62.8845C80.2872 63.0008 80.2147 63.1057 80.1238 63.1932C80.0385 63.2869 79.9344 63.3614 79.8184 63.4116C79.7024 63.4619 79.5771 63.4869 79.4508 63.4849H76.5735C76.32 63.479 76.0785 63.375 75.8991 63.1947C75.7198 63.0144 75.6165 62.7716 75.6106 62.5166V39.3835C75.6078 39.2564 75.6323 39.1302 75.6824 39.0135C75.7324 38.8967 75.8068 38.7922 75.9006 38.7069C75.9859 38.6132 76.09 38.5388 76.206 38.4885C76.322 38.4383 76.4472 38.4133 76.5735 38.4153H78.9984C79.1909 38.3975 79.385 38.424 79.5659 38.4927C79.7467 38.5614 79.9097 38.6706 80.0425 38.8119C80.2746 39.0685 80.437 39.2669 80.5298 39.3835L87.2706 51.2009Z" fill="white"/>
<path d="M116.728 38.4151C116.882 38.4065 117.037 38.4289 117.182 38.481C117.327 38.533 117.461 38.6138 117.575 38.7184C117.802 38.9842 117.971 39.2939 118.074 39.6284L126.799 62.2598C126.811 62.345 126.811 62.4314 126.799 62.5165C126.796 62.7724 126.693 63.0169 126.513 63.1978C126.333 63.3787 126.09 63.4817 125.836 63.4847H123.272C122.912 63.5199 122.554 63.4109 122.274 63.1814C122.111 63.0082 121.982 62.8066 121.891 62.5865L120.36 58.6085H109.106L107.574 62.5865C107.479 62.8067 107.345 63.0082 107.18 63.1814C107.042 63.2962 106.882 63.3821 106.711 63.4342C106.54 63.4862 106.36 63.5034 106.182 63.4847H103.653C103.526 63.4875 103.401 63.4629 103.285 63.4125C103.169 63.3622 103.065 63.2874 102.98 63.1931C102.856 63.0759 102.767 62.9269 102.722 62.7623C102.677 62.5978 102.678 62.424 102.724 62.2598L111.449 39.6634C111.556 39.3309 111.726 39.022 111.948 38.7534C112.063 38.6473 112.199 38.5657 112.347 38.5136C112.494 38.4615 112.651 38.4399 112.807 38.4501L116.728 38.4151ZM118.677 54.1405L114.767 43.933L110.846 54.1405H118.677Z" fill="white"/>
<path d="M145.432 55.5287C145.443 55.3945 145.482 55.2641 145.546 55.1457C145.61 55.0273 145.697 54.9234 145.803 54.8405C145.988 54.6848 146.223 54.6019 146.464 54.6071H149.342C149.598 54.6008 149.846 54.6925 150.038 54.8638C150.134 54.9511 150.208 55.06 150.254 55.1817C150.301 55.3033 150.318 55.4342 150.304 55.5637C150.226 56.5779 149.979 57.5717 149.574 58.5035C149.139 59.5149 148.489 60.4186 147.671 61.1516C146.723 61.9967 145.625 62.6538 144.434 63.0881C142.911 63.6275 141.303 63.8844 139.689 63.8464C138.209 63.8739 136.738 63.6246 135.349 63.1114C134.158 62.6723 133.073 61.9833 132.167 61.0903C131.261 60.1973 130.554 59.1206 130.094 57.9319C129.595 56.6609 129.301 55.318 129.224 53.9539C129.224 53.0439 129.154 52.0523 129.154 50.9441C129.154 49.8359 129.154 48.8443 129.224 47.946C129.301 46.5819 129.595 45.239 130.094 43.968C130.553 42.7894 131.253 41.7205 132.147 40.8299C133.064 39.9351 134.154 39.2401 135.349 38.7884C136.738 38.2752 138.209 38.026 139.689 38.0535C141.303 38.0154 142.911 38.2724 144.434 38.8118C145.625 39.2461 146.723 39.9031 147.671 40.7483C148.492 41.4831 149.142 42.3913 149.574 43.4081C149.974 44.3336 150.221 45.3188 150.304 46.3245C150.32 46.4542 150.304 46.5856 150.257 46.7076C150.211 46.8295 150.135 46.9383 150.038 47.0244C149.85 47.2031 149.6 47.2996 149.342 47.2927H146.464C146.217 47.2902 145.977 47.2085 145.78 47.0594C145.672 46.9771 145.583 46.8736 145.517 46.7552C145.451 46.6368 145.41 46.5061 145.397 46.3711C145.313 45.879 145.144 45.4053 144.898 44.9713C144.615 44.5206 144.254 44.1253 143.831 43.8047C143.313 43.4129 142.732 43.113 142.113 42.9181C141.327 42.6801 140.509 42.566 139.689 42.5798C138.864 42.5603 138.043 42.7071 137.275 43.0114C136.625 43.2764 136.037 43.6736 135.547 44.178C135.074 44.667 134.71 45.2516 134.479 45.8929C134.222 46.5734 134.07 47.2893 134.027 48.016C134.027 48.9143 133.957 49.9175 133.957 51.0141C133.957 52.1107 133.957 53.1139 134.027 54.0239C134.066 54.7549 134.218 55.4752 134.479 56.1587C134.713 56.795 135.077 57.3752 135.547 57.8619C136.037 58.3663 136.625 58.7634 137.275 59.0284C138.045 59.3272 138.864 59.4738 139.689 59.4601C140.509 59.4739 141.327 59.3598 142.113 59.1218C142.734 58.9243 143.319 58.6247 143.842 58.2352C144.278 57.9213 144.648 57.5251 144.933 57.0686C145.194 56.5917 145.364 56.0691 145.432 55.5287Z" fill="white"/>
<path d="M171.606 38.4151C171.732 38.4132 171.857 38.4381 171.973 38.4884C172.089 38.5387 172.193 38.6131 172.279 38.7068C172.371 38.7934 172.444 38.8983 172.494 39.0147C172.544 39.1311 172.569 39.2566 172.569 39.3834V41.9265C172.569 42.0533 172.544 42.1788 172.494 42.2952C172.444 42.4117 172.371 42.5165 172.279 42.6031C172.193 42.6968 172.089 42.7713 171.973 42.8215C171.857 42.8718 171.732 42.8968 171.606 42.8948H165.19V62.5165C165.187 62.7724 165.084 63.0169 164.905 63.1978C164.725 63.3788 164.481 63.4817 164.227 63.4848H161.35C161.095 63.4817 160.852 63.3788 160.672 63.1978C160.492 63.0169 160.39 62.7724 160.387 62.5165V42.8948H153.971C153.844 42.8968 153.719 42.8718 153.603 42.8215C153.487 42.7713 153.383 42.6968 153.298 42.6031C153.204 42.5179 153.13 42.4133 153.08 42.2966C153.03 42.1798 153.005 42.0536 153.008 41.9265V39.3834C153.005 39.2563 153.03 39.1301 153.08 39.0134C153.13 38.8966 153.204 38.7921 153.298 38.7068C153.383 38.6131 153.487 38.5387 153.603 38.4884C153.719 38.4381 153.844 38.4132 153.971 38.4151H171.606Z" fill="white"/>
<path d="M193.255 59.0051C193.382 59.0032 193.507 59.0281 193.623 59.0784C193.739 59.1287 193.843 59.2031 193.928 59.2968C194.022 59.3821 194.096 59.4866 194.146 59.6034C194.196 59.7201 194.221 59.8463 194.218 59.9734V62.5165C194.212 62.7715 194.109 63.0143 193.93 63.1946C193.75 63.3749 193.509 63.4788 193.255 63.4848H177.616C177.489 63.4868 177.364 63.4618 177.248 63.4115C177.132 63.3612 177.028 63.2868 176.943 63.1931C176.852 63.1056 176.779 63.0006 176.73 62.8844C176.68 62.7682 176.654 62.6431 176.653 62.5165V39.3834C176.652 39.2566 176.678 39.1311 176.728 39.0147C176.778 38.8983 176.851 38.7935 176.943 38.7068C177.028 38.6131 177.132 38.5387 177.248 38.4884C177.364 38.4382 177.489 38.4132 177.616 38.4152H192.965C193.093 38.413 193.22 38.4378 193.338 38.4881C193.456 38.5383 193.562 38.6128 193.65 38.7068C193.74 38.794 193.812 38.8992 193.86 39.0157C193.908 39.1322 193.931 39.2574 193.928 39.3834V41.9265C193.931 42.0526 193.908 42.1778 193.86 42.2943C193.812 42.4107 193.74 42.5159 193.65 42.6032C193.562 42.6972 193.456 42.7717 193.338 42.8219C193.22 42.8721 193.093 42.897 192.965 42.8948H181.468V48.5877H192.188C192.313 48.5863 192.437 48.6104 192.553 48.6585C192.668 48.7066 192.773 48.7778 192.861 48.8676C192.952 48.9573 193.025 49.0643 193.075 49.1825C193.124 49.3007 193.15 49.4276 193.151 49.5559V52.099C193.15 52.2256 193.124 52.3507 193.074 52.4669C193.024 52.5832 192.952 52.6882 192.861 52.7757C192.773 52.8655 192.668 52.9367 192.553 52.9848C192.437 53.0329 192.313 53.057 192.188 53.0556H181.468V59.0051H193.255Z" fill="white"/>
<path d="M215.879 25.8861C217.55 25.875 219.213 26.0988 220.822 26.5511C222.307 26.9709 223.698 27.676 224.917 28.6276C226.103 29.5636 227.06 30.7609 227.713 32.1273C228.444 33.7281 228.802 35.4759 228.758 37.2369C228.801 39.0053 228.444 40.7605 227.713 42.3698C227.063 43.771 226.107 45.007 224.917 45.9862C223.708 46.9719 222.316 47.7056 220.822 48.1443C219.215 48.6101 217.551 48.8419 215.879 48.8326H206.052V62.0382C206.054 62.2279 206.016 62.4158 205.942 62.5903C205.868 62.7649 205.76 62.9224 205.623 63.0531C205.494 63.1923 205.338 63.3026 205.164 63.377C204.99 63.4514 204.803 63.4881 204.614 63.4847H202.421C202.232 63.4881 202.044 63.4514 201.87 63.377C201.697 63.3026 201.54 63.1923 201.411 63.0531C201.275 62.9224 201.166 62.7649 201.092 62.5903C201.018 62.4158 200.981 62.2279 200.982 62.0382V27.3327C200.988 26.9509 201.142 26.5865 201.41 26.3165C201.679 26.0465 202.041 25.8922 202.421 25.8861H215.879ZM206.052 44.038H215.624C217.746 44.1749 219.851 43.5871 221.599 42.3698C222.313 41.7511 222.874 40.9734 223.236 40.0985C223.599 39.2236 223.753 38.2757 223.687 37.3302C223.777 36.3807 223.633 35.4238 223.269 34.5431C222.905 33.6625 222.331 32.8851 221.599 32.2789C219.831 31.1354 217.746 30.5879 215.647 30.7157H206.052V44.038Z" fill="#DB211D"/>
<path d="M256.591 54.9921H238.028L235.255 62.1432C235.119 62.4756 234.917 62.7771 234.663 63.0298C234.457 63.2036 234.218 63.3335 233.961 63.4118C233.704 63.49 233.434 63.5148 233.166 63.4847H231.194C231.041 63.4841 230.889 63.4528 230.747 63.3928C230.606 63.3327 230.478 63.245 230.37 63.1348C230.259 63.0253 230.171 62.8946 230.111 62.7503C230.052 62.606 230.021 62.4511 230.022 62.2948C230.045 62.035 230.116 61.7818 230.231 61.5482L243.318 27.7177C243.53 27.2932 243.799 26.9006 244.119 26.5511C244.33 26.3468 244.582 26.1894 244.858 26.0889C245.134 25.9885 245.427 25.9472 245.72 25.9678H248.934C249.226 25.9472 249.52 25.9885 249.796 26.0889C250.071 26.1894 250.323 26.3468 250.535 26.5511C250.854 26.9006 251.124 27.2932 251.335 27.7177L264.364 61.6065C264.482 61.84 264.557 62.093 264.585 62.3532C264.585 62.6625 264.462 62.9593 264.245 63.178C264.027 63.3968 263.732 63.5197 263.425 63.5197H261.452C261.185 63.5471 260.915 63.521 260.659 63.4429C260.402 63.3648 260.163 63.2363 259.955 63.0648C259.709 62.8058 259.509 62.5059 259.364 62.1782L256.591 54.9921ZM239.93 50.1625H254.723L247.356 30.9841L239.93 50.1625Z" fill="#DB211D"/>
<path d="M281.524 37.7037C281.649 37.7023 281.773 37.7264 281.889 37.7745C282.004 37.8226 282.109 37.8938 282.197 37.9836C282.288 38.0733 282.36 38.1803 282.41 38.2985C282.46 38.4167 282.486 38.5436 282.487 38.6719V41.6C283.817 41.6225 285.134 41.8669 286.385 42.3233C287.588 42.756 288.706 43.3955 289.691 44.2131C290.65 45.0251 291.439 46.0204 292.012 47.1412C292.585 48.3284 292.882 49.6306 292.882 50.9501C292.882 52.2695 292.585 53.5718 292.012 54.7589C291.439 55.8798 290.65 56.8751 289.691 57.687C288.706 58.5047 287.588 59.1441 286.385 59.5769C285.134 60.0332 283.817 60.2777 282.487 60.3001V63.2282C282.486 63.3566 282.46 63.4835 282.41 63.6017C282.36 63.7198 282.288 63.8268 282.197 63.9165C282.109 64.0064 282.004 64.0775 281.889 64.1256C281.773 64.1738 281.649 64.1979 281.524 64.1965H278.635C278.38 64.1935 278.137 64.0905 277.957 63.9095C277.777 63.7286 277.675 63.4841 277.672 63.2282V60.3001C276.334 60.2768 275.009 60.0325 273.75 59.5769C272.542 59.1496 271.418 58.5097 270.432 57.687C269.47 56.8786 268.68 55.8825 268.112 54.7589C267.554 53.5674 267.265 52.2669 267.265 50.9501C267.265 49.6333 267.554 48.3327 268.112 47.1412C268.68 46.0176 269.47 45.0215 270.432 44.2131C271.435 43.3845 272.579 42.7443 273.808 42.3233C275.067 41.8677 276.392 41.6234 277.73 41.6V38.6719C277.733 38.4161 277.835 38.1715 278.015 37.9906C278.195 37.8097 278.438 37.7067 278.693 37.7037H281.524ZM277.672 46.0796C276.769 46.0941 275.876 46.2761 275.038 46.6163C274.395 46.8808 273.814 47.2782 273.333 47.7828C272.917 48.2233 272.6 48.7485 272.404 49.3227C272.216 49.8425 272.118 50.391 272.114 50.9442C272.118 51.5013 272.216 52.0536 272.404 52.5774C272.6 53.1517 272.917 53.6769 273.333 54.1173C273.814 54.6214 274.395 55.0187 275.038 55.2839C275.872 55.6362 276.768 55.8148 277.672 55.8089V46.0796ZM288.032 50.9442C288.027 50.3921 287.933 49.8445 287.754 49.3227C287.553 48.7507 287.237 48.2265 286.826 47.7828C286.343 47.2808 285.762 46.8838 285.12 46.6163C284.282 46.2773 283.39 46.0955 282.487 46.0796V55.8205C283.391 55.8252 284.286 55.6467 285.12 55.2956C285.762 55.0274 286.342 54.6305 286.826 54.129C287.237 53.6854 287.553 53.1611 287.754 52.5891C287.935 52.0596 288.029 51.5041 288.032 50.9442Z" fill="white"/>
<path d="M312.095 38.4152C312.223 38.413 312.35 38.4378 312.468 38.4881C312.586 38.5383 312.692 38.6128 312.78 38.7068C312.87 38.794 312.942 38.8992 312.989 39.0157C313.037 39.1322 313.061 39.2574 313.058 39.3834V41.9265C313.061 42.0526 313.037 42.1778 312.989 42.2943C312.942 42.4107 312.87 42.5159 312.78 42.6032C312.692 42.6972 312.586 42.7717 312.468 42.8219C312.35 42.8721 312.223 42.897 312.095 42.8948H305.691V62.5165C305.685 62.7715 305.581 63.0143 305.402 63.1946C305.223 63.3749 304.981 63.4788 304.728 63.4848H301.839C301.713 63.4868 301.587 63.4618 301.471 63.4115C301.355 63.3612 301.251 63.2868 301.166 63.1931C301.075 63.1056 301.002 63.0006 300.953 62.8844C300.903 62.7682 300.877 62.6431 300.876 62.5165V42.8948H294.472C294.218 42.8889 293.976 42.785 293.797 42.6046C293.618 42.4243 293.514 42.1815 293.509 41.9265V39.3834C293.514 39.1285 293.618 38.8856 293.797 38.7053C293.976 38.525 294.218 38.4211 294.472 38.4152H312.095Z" fill="white"/>
<path d="M79.6829 81.2634C79.6249 81.535 79.6353 81.8168 79.7131 82.0833C79.7909 82.3498 79.9337 82.5926 80.1284 82.7896C80.3232 82.9866 80.5638 83.1316 80.8284 83.2114C81.093 83.2912 81.3732 83.3033 81.6436 83.2466H83.616V78.2887C83.616 78.1618 83.6661 78.0401 83.7553 77.9504C83.8445 77.8607 83.9655 77.8104 84.0917 77.8104H86.4121C86.4764 77.8094 86.5403 77.8213 86.6 77.8453C86.6598 77.8694 86.7142 77.9051 86.7601 77.9503C86.8048 77.9944 86.8402 78.0471 86.8641 78.1052C86.8881 78.1633 86.9 78.2257 86.8994 78.2887V89.826C86.901 89.8908 86.8894 89.9552 86.8655 90.0154C86.8416 90.0756 86.8058 90.1302 86.7602 90.176C86.7146 90.2219 86.6603 90.2579 86.6004 90.282C86.5406 90.306 86.4765 90.3176 86.4121 90.316H84.0917C84.0291 90.3167 83.967 90.3046 83.9092 90.2806C83.8514 90.2565 83.799 90.2209 83.7552 90.176C83.7102 90.1298 83.6747 90.0751 83.6508 90.015C83.6269 89.9549 83.6151 89.8907 83.616 89.826V86.093H81.1215C80.4818 86.1635 79.8345 86.0884 79.2275 85.8734C78.6205 85.6584 78.0693 85.3089 77.6148 84.8507C77.1603 84.3926 76.814 83.8376 76.6017 83.2267C76.3893 82.6159 76.3162 81.9648 76.3879 81.3217V78.2887C76.3879 78.1618 76.438 78.0401 76.5272 77.9504C76.6164 77.8607 76.7374 77.8104 76.8636 77.8104H79.184C79.2466 77.8097 79.3086 77.8217 79.3665 77.8458C79.4243 77.8698 79.4767 77.9054 79.5205 77.9503C79.569 77.9919 79.6077 78.0439 79.6338 78.1024C79.6599 78.1609 79.6727 78.2245 79.6713 78.2887L79.6829 81.2634Z" fill="white"/>
<path d="M101.495 87.4929C101.558 87.4915 101.622 87.5043 101.68 87.5306C101.738 87.5568 101.79 87.5957 101.831 87.6445C101.876 87.6886 101.911 87.7413 101.935 87.7994C101.959 87.8575 101.971 87.9199 101.97 87.9829V89.826C101.971 89.8907 101.959 89.955 101.936 90.015C101.912 90.0751 101.876 90.1298 101.831 90.176C101.787 90.221 101.735 90.2565 101.677 90.2806C101.619 90.3046 101.557 90.3167 101.495 90.316H93.0484C92.9858 90.3167 92.9237 90.3046 92.8659 90.2806C92.8081 90.2565 92.7557 90.221 92.7119 90.176C92.6669 90.1298 92.6314 90.0751 92.6075 90.015C92.5836 89.955 92.5718 89.8907 92.5727 89.826V78.2887C92.5727 78.1618 92.6228 78.0401 92.712 77.9504C92.8012 77.8607 92.9222 77.8104 93.0484 77.8104H101.344C101.408 77.8094 101.472 77.8213 101.532 77.8453C101.592 77.8694 101.646 77.9051 101.692 77.9503C101.737 77.9944 101.772 78.0471 101.796 78.1052C101.82 78.1633 101.832 78.2257 101.831 78.2887V80.1902C101.832 80.2531 101.82 80.3155 101.796 80.3736C101.772 80.4318 101.737 80.4844 101.692 80.5285C101.646 80.5737 101.592 80.6094 101.532 80.6335C101.472 80.6575 101.408 80.6694 101.344 80.6685H95.8677V82.605H100.938C101.064 82.605 101.185 82.6554 101.274 82.7451C101.363 82.8347 101.413 82.9564 101.413 83.0833V84.9848C101.414 85.0477 101.402 85.1101 101.378 85.1682C101.354 85.2264 101.319 85.279 101.274 85.3231C101.231 85.3696 101.179 85.407 101.121 85.433C101.063 85.4591 101.001 85.4732 100.938 85.4747H95.8677V87.4929H101.495Z" fill="white"/>
<path d="M112.401 87.1779C112.309 87.0902 112.227 86.9923 112.157 86.8863L110.486 83.9232V89.826C110.488 89.8908 110.476 89.9552 110.452 90.0154C110.428 90.0756 110.393 90.1302 110.347 90.176C110.301 90.2219 110.247 90.2579 110.187 90.2819C110.127 90.306 110.063 90.3176 109.999 90.316H107.679C107.616 90.3167 107.554 90.3046 107.496 90.2806C107.438 90.2565 107.386 90.2209 107.342 90.176C107.297 90.1298 107.262 90.0751 107.238 90.015C107.214 89.9549 107.202 89.8907 107.203 89.826V78.2886C107.203 78.1618 107.253 78.0401 107.342 77.9504C107.431 77.8607 107.552 77.8103 107.679 77.8103H109.744C109.842 77.8005 109.941 77.8133 110.033 77.8476C110.126 77.882 110.209 77.9371 110.277 78.0087C110.365 78.0926 110.443 78.1865 110.509 78.2886L113.398 83.2466L116.287 78.2886C116.354 78.1865 116.431 78.0926 116.519 78.0087C116.587 77.9371 116.671 77.882 116.763 77.8476C116.856 77.8133 116.955 77.8005 117.053 77.8103H119.118C119.244 77.8103 119.365 77.8607 119.455 77.9504C119.544 78.0401 119.594 78.1618 119.594 78.2886V89.826C119.595 89.8907 119.583 89.9549 119.559 90.015C119.535 90.0751 119.5 90.1298 119.455 90.176C119.411 90.2209 119.358 90.2565 119.301 90.2806C119.243 90.3046 119.181 90.3167 119.118 90.316H116.798C116.735 90.3181 116.673 90.3067 116.614 90.2825C116.556 90.2584 116.504 90.2221 116.461 90.176C116.412 90.1321 116.374 90.0781 116.348 90.0177C116.322 89.9573 116.309 89.8919 116.31 89.826V83.9232L114.64 86.8863C114.57 86.9923 114.488 87.0902 114.396 87.1779C114.341 87.2312 114.275 87.2723 114.203 87.2984C114.131 87.3246 114.055 87.3352 113.978 87.3296H112.818C112.742 87.3344 112.666 87.3235 112.594 87.2974C112.522 87.2713 112.456 87.2306 112.401 87.1779Z" fill="white"/>
<path d="M131.834 77.8103C131.934 77.8028 132.034 77.8166 132.128 77.8508C132.222 77.885 132.308 77.9388 132.379 78.0087C132.492 78.1166 132.579 78.248 132.635 78.3936L136.521 89.6744C136.56 89.7592 136.583 89.8499 136.591 89.9427C136.591 90.0479 136.549 90.1488 136.475 90.2231C136.401 90.2975 136.301 90.3393 136.196 90.3393H133.957C133.866 90.3496 133.774 90.3415 133.687 90.3154C133.599 90.2894 133.517 90.2459 133.447 90.1877C133.359 90.1094 133.295 90.0085 133.261 89.896L132.762 88.4028H128.029L127.53 89.896C127.491 90.0063 127.427 90.1061 127.344 90.1877C127.2 90.3031 127.017 90.3575 126.834 90.3393H124.583C124.532 90.3412 124.482 90.3317 124.436 90.3115C124.39 90.2913 124.349 90.2609 124.316 90.2227C124.279 90.1863 124.249 90.1428 124.229 90.0946C124.209 90.0465 124.199 89.9948 124.2 89.9427C124.208 89.8499 124.231 89.7592 124.27 89.6744L128.145 78.3936C128.205 78.2475 128.296 78.1161 128.411 78.0087C128.48 77.9378 128.564 77.8832 128.656 77.8489C128.748 77.8145 128.847 77.8014 128.945 77.8103H131.834ZM128.945 85.6264H131.834L130.395 81.3334L128.945 85.6264Z" fill="white"/>
<path d="M145.513 80.6684V86.0463C145.523 86.6978 145.417 87.3458 145.2 87.9595C145.01 88.4903 144.7 88.9696 144.295 89.3594C143.89 89.7466 143.408 90.0411 142.879 90.2226C142.274 90.4259 141.638 90.5245 141 90.5143H140.721C140.659 90.515 140.597 90.5029 140.539 90.4789C140.481 90.4548 140.429 90.4192 140.385 90.3743C140.338 90.3321 140.301 90.2798 140.277 90.2212C140.252 90.1626 140.242 90.0993 140.246 90.036V88.1345C140.242 88.0712 140.252 88.0079 140.277 87.9493C140.301 87.8907 140.338 87.8383 140.385 87.7962C140.429 87.7512 140.481 87.7157 140.539 87.6916C140.597 87.6676 140.659 87.6555 140.721 87.6562C140.93 87.6771 141.14 87.6547 141.34 87.5905C141.539 87.5263 141.724 87.4216 141.881 87.2829C142.145 86.9279 142.269 86.4876 142.229 86.0463V78.2886C142.229 78.1618 142.28 78.0401 142.369 77.9504C142.458 77.8607 142.579 77.8103 142.705 77.8103H151.662C151.725 77.8097 151.787 77.8217 151.844 77.8458C151.902 77.8698 151.955 77.9054 151.998 77.9503C152.047 77.9919 152.086 78.0438 152.112 78.1024C152.138 78.1609 152.151 78.2245 152.149 78.2886V89.826C152.151 89.8918 152.138 89.9572 152.112 90.0176C152.086 90.0781 152.047 90.1321 151.998 90.176C151.955 90.2209 151.902 90.2565 151.844 90.2805C151.787 90.3046 151.725 90.3166 151.662 90.316H149.342C149.279 90.3166 149.217 90.3046 149.159 90.2805C149.101 90.2565 149.049 90.2209 149.005 90.176C148.96 90.1298 148.925 90.0751 148.901 90.015C148.877 89.9549 148.865 89.8907 148.866 89.826V80.6684H145.513Z" fill="white"/>
<path d="M45.9209 41.5415C45.7352 41.5415 43.7513 41.5415 43.8557 44.1313C43.9601 46.7211 43.4032 46.8027 42.1154 47.1527C40.8276 47.5027 35.4442 48.0276 32.9614 53.9305C30.4786 59.8333 30.8034 60.5333 31.8824 59.0517C32.9614 57.5702 34.6785 52.6706 37.289 51.609C39.8994 50.5474 40.5375 51.609 40.5375 51.609C40.5405 53.306 40.0832 54.9717 39.2149 56.4269C37.2324 59.8578 36.319 63.8077 36.5928 67.766C36.8365 72.7823 37.6486 83.2464 43.438 93.5006C43.438 93.5006 44.0297 94.1655 43.8905 92.929C43.7513 91.6924 34.1912 62.6448 43.5309 59.9616C52.8705 57.2785 50.7009 67.241 49.7728 69.0492C48.8446 70.8574 47.8004 72.1523 48.7286 72.3273C49.6567 72.5023 54.692 66.1445 53.8567 61.8282C53.0213 57.5118 45.8977 55.0854 42.0922 55.2954C42.0922 55.2954 44.3198 53.3355 45.7236 51.959C47.1275 50.5824 53.8451 48.4593 55.2489 46.8027C56.6528 45.1462 60.5279 39.71 60.0406 39.01C59.5533 38.3101 56.2931 44.3296 52.3832 45.6478C48.4733 46.966 46.9303 47.8876 46.443 47.2227C45.9557 46.5577 47.4175 44.9479 47.4872 43.723C47.5301 43.476 47.5235 43.2228 47.4676 42.9784C47.4117 42.734 47.3076 42.5034 47.1617 42.3C47.0157 42.0967 46.8307 41.9248 46.6176 41.7946C46.4045 41.6643 46.1676 41.5782 45.9209 41.5415Z" fill="white"/>
<path d="M61.9897 65.3278C61.4813 66.4283 61.186 67.616 61.1196 68.8276C60.9107 71.1607 60.9455 73.2722 63.1731 73.2372C65.4007 73.2022 65.656 71.2657 65.0295 69.0259C64.5789 67.5661 63.8144 66.2239 62.7903 65.0945L58.5671 36.5135C58.5671 36.5135 57.9058 36.2336 57.871 36.7585C57.8362 37.2835 61.9897 65.3278 61.9897 65.3278Z" fill="white"/>
</g>
<defs>
<clipPath id="clip0">
<rect width="313" height="122" fill="white"/>
</clipPath>
</defs>
</svg>
